<svg width="40" height="40" viewBox="0 0 40 40" fill="none" xmlns="http://www.w3.org/2000/svg">
<g clip-path="url(#clip0_2074_4715)">
<path d="M35.2 40H4.8C2.14815 40 0 37.8519 0 35.2V4.83705C0 2.1852 2.14815 0.0370483 4.8 0.0370483H35.2C37.8519 0.0370483 40 2.1852 40 4.83705V35.2C40 37.8519 37.8519 40 35.2 40Z" fill="url(#paint0_linear_2074_4715)"/>
<path opacity="0.5" d="M1.27408 34.052V5.98526C1.27408 3.40007 3.37037 1.30377 5.95556 1.30377H34.0518C36.637 1.30377 38.7333 3.40007 38.7333 5.98526V34.052C38.7333 36.6371 36.637 38.7334 34.0518 38.7334H5.94815C3.36297 38.7334 1.27408 36.6371 1.27408 34.052Z" fill="url(#paint1_linear_2074_4715)"/>
<path d="M16.8 17.0815L12.8741 21.5111L19.4148 28.3852L24.2 24.6222L16.8 17.0815Z" fill="url(#paint2_linear_2074_4715)"/>
<path d="M39.4222 37.4889C39.3481 37.6222 39.2666 37.7556 39.1852 37.8815C39.2666 37.7556 39.3481 37.6222 39.4222 37.4889Z" fill="url(#paint3_linear_2074_4715)"/>
<path d="M37.9185 39.1556C38.2815 38.9037 38.6075 38.6074 38.889 38.2741C38.6075 38.6148 38.2815 38.9111 37.9185 39.1556Z" fill="url(#paint4_linear_2074_4715)"/>
<path d="M37.9111 39.1618C37.9111 39.1618 37.9159 39.157 37.9111 39.1618C37.9159 39.157 37.9111 39.1618 37.9111 39.1618Z" fill="url(#paint5_linear_2074_4715)"/>
<path d="M37.9111 39.1618C37.9111 39.1618 37.9159 39.157 37.9111 39.1618C37.9159 39.157 37.9111 39.1618 37.9111 39.1618Z" fill="url(#paint6_linear_2074_4715)"/>
<path d="M40 35.2C40 35.8592 39.8666 36.4963 39.6222 37.0666C39.8666 36.4963 40 35.8592 40 35.2V23.9259V35.2Z" fill="url(#paint7_linear_2074_4715)"/>
<path d="M39.1778 37.8815C39.0889 38.0148 38.9852 38.1482 38.8815 38.2741C38.9926 38.1482 39.0889 38.0222 39.1778 37.8815Z" fill="url(#paint8_linear_2074_4715)"/>
<path d="M39.6222 37.0667C39.5629 37.2074 39.4963 37.3482 39.4222 37.4889C39.4963 37.3556 39.5629 37.2148 39.6222 37.0667Z" fill="url(#paint9_linear_2074_4715)"/>
<path d="M40 23.9259L32.5629 16.1407L23.6666 24.4445L37.9185 39.163C38.2815 38.9111 38.6074 38.6148 38.8889 38.2815C38.9926 38.1556 39.0963 38.0222 39.1852 37.8889C39.274 37.763 39.3481 37.6296 39.4222 37.4963C39.4963 37.363 39.5629 37.2222 39.6222 37.0741C39.8666 36.4963 40 35.8667 40 35.2074V23.9259Z" fill="url(#paint10_linear_2074_4715)"/>
<path d="M5.89629 28.6963L16.7407 40H16.8592L5.89629 28.6963Z" fill="url(#paint11_linear_2074_4715)"/>
<path d="M9.99258 24.8815L24.9926 40H30.4741L13.2148 21.8741L9.99258 24.8815Z" fill="url(#paint12_linear_2074_4715)"/>
<path d="M36.0518 11.7111L32.5629 16.1407L40 23.9185V23.9259V15.7037L36.0518 11.7111Z" fill="url(#paint13_linear_2074_4715)"/>
<path d="M40 23.9185L32.5629 16.1407L40 23.9259V23.9185Z" fill="url(#paint14_linear_2074_4715)"/>
<path d="M40 23.9185L32.5629 16.1407L40 23.9259V23.9185Z" fill="url(#paint15_linear_2074_4715)"/>
<path d="M40 23.9185L32.5629 16.1407L40 23.9259V23.9185Z" fill="url(#paint16_linear_2074_4715)"/>
<path d="M37.9111 39.163L23.6666 24.4445L19.4148 28.3926L30.6074 40H35.2C36.2074 40 37.1407 39.6889 37.9111 39.163Z" fill="url(#paint17_linear_2074_4715)"/>
<path d="M37.9185 39.1556L23.6666 24.4445L37.9185 39.1556C37.9111 39.163 37.9185 39.1556 37.9185 39.1556Z" fill="url(#paint18_linear_2074_4715)"/>
<path d="M37.9185 39.1556L23.6666 24.4445L37.9185 39.1556C37.9111 39.163 37.9185 39.1556 37.9185 39.1556Z" fill="url(#paint19_linear_2074_4715)"/>
<path d="M37.9185 39.1556L23.6666 24.4445L37.9185 39.1556C37.9111 39.163 37.9185 39.1556 37.9185 39.1556Z" fill="url(#paint20_linear_2074_4715)"/>
<path d="M9.39258 24.2741L5.89629 28.6963L9.99258 24.8815L9.39258 24.2741Z" fill="url(#paint21_linear_2074_4715)"/>
<path d="M24.9926 40L9.99258 24.8815L5.89629 28.6963L16.8592 40H24.9926Z" fill="url(#paint22_linear_2074_4715)"/>
<path d="M24.9926 40L9.99258 24.8815L5.89629 28.6963L16.8592 40H24.9926Z" fill="url(#paint23_linear_2074_4715)"/>
<path d="M7.74815 29.4222C6.14074 29.4222 4.83704 28.1185 4.83704 26.5111C4.83704 24.9037 6.14074 23.6 7.74815 23.6C9.35555 23.6 10.6593 24.9037 10.6593 26.5111C10.6593 28.1185 9.35555 29.4222 7.74815 29.4222Z" fill="white"/>
<path d="M14.9037 22.2C13.2963 22.2 11.9926 20.8963 11.9926 19.2889C11.9926 17.6815 13.2963 16.3778 14.9037 16.3778C16.5111 16.3778 17.8148 17.6815 17.8148 19.2889C17.8148 20.8963 16.5111 22.2 14.9037 22.2Z" fill="white"/>
<path d="M21.7333 29.5333C20.1259 29.5333 18.8222 28.2296 18.8222 26.6222C18.8222 25.0148 20.1259 23.7111 21.7333 23.7111C23.3407 23.7111 24.6444 25.0148 24.6444 26.6222C24.6444 28.2296 23.3407 29.5333 21.7333 29.5333Z" fill="white"/>
<path d="M34.363 16.9037C32.7556 16.9037 31.4519 15.6 31.4519 13.9926C31.4519 12.3852 32.7556 11.0815 34.363 11.0815C35.9704 11.0815 37.2741 12.3852 37.2741 13.9926C37.2815 15.5926 35.9704 16.9037 34.363 16.9037Z" fill="white"/>
<path d="M21.4444 27.563L14.5111 20.6223L8.18519 26.9482L7.31111 26.0741L14.5111 18.8741L21.4444 25.8148L34.2963 12.963L35.1704 13.8371L21.4444 27.563Z" fill="white"/>
<path d="M4.65185 39.963C2.08148 39.963 0 37.8815 0 35.3185V4.8C0 2.14815 2.14815 0 4.8 0H35.1185C37.8148 0 40 2.18519 40 4.87407V23.8889V32.7185V35.2C40 37.8444 37.8444 39.9852 35.2 39.9704C34.2074 39.963 33.2889 39.963 32.7111 39.963H4.65185Z" fill="url(#paint24_linear_2074_4715)"/>
</g>
<defs>
<linearGradient id="paint0_linear_2074_4715" x1="21.557" y1="16.6258" x2="-0.193647" y2="64.031" gradientUnits="userSpaceOnUse">
<stop offset="0.4206" stop-color="#EA7317"/>
<stop offset="1" stop-color="#7E2542"/>
</linearGradient>
<linearGradient id="paint1_linear_2074_4715" x1="-0.337492" y1="-5.43388" x2="41.3301" y2="46.7122" gradientUnits="userSpaceOnUse">
<stop stop-color="#7E2542" stop-opacity="0.3"/>
<stop offset="0.0070214" stop-color="#822840" stop-opacity="0.3085"/>
<stop offset="0.0713146" stop-color="#A23F34" stop-opacity="0.3862"/>
<stop offset="0.1412" stop-color="#BC5229" stop-opacity="0.4705"/>
<stop offset="0.2175" stop-color="#D16121" stop-opacity="0.5628"/>
<stop offset="0.3037" stop-color="#DF6B1B" stop-opacity="0.6669"/>
<stop offset="0.4079" stop-color="#E77118" stop-opacity="0.7928"/>
<stop offset="0.5794" stop-color="#EA7317"/>
</linearGradient>
<linearGradient id="paint2_linear_2074_4715" x1="11.6128" y1="9.60389" x2="56.6044" y2="97.0721" gradientUnits="userSpaceOnUse">
<stop stop-color="#7E2542"/>
<stop offset="0.0908229" stop-color="#993837" stop-opacity="0.8433"/>
<stop offset="0.2312" stop-color="#BC5229" stop-opacity="0.6009"/>
<stop offset="0.3636" stop-color="#D5641F" stop-opacity="0.3726"/>
<stop offset="0.4833" stop-color="#E56F19" stop-opacity="0.1658"/>
<stop offset="0.5794" stop-color="#EA7317" stop-opacity="0"/>
</linearGradient>
<linearGradient id="paint3_linear_2074_4715" x1="0.788197" y1="-37.1853" x2="115.871" y2="186.55" gradientUnits="userSpaceOnUse">
<stop stop-color="#7E2542"/>
<stop offset="0.1715" stop-color="#9B3A37" stop-opacity="0.6993"/>
<stop offset="0.5417" stop-color="#E46F19" stop-opacity="0.050237"/>
<stop offset="0.5704" stop-color="#EA7317" stop-opacity="0"/>
</linearGradient>
<linearGradient id="paint4_linear_2074_4715" x1="-0.343628" y1="-36.6029" x2="114.737" y2="187.134" gradientUnits="userSpaceOnUse">
<stop stop-color="#7E2542"/>
<stop offset="0.1715" stop-color="#9B3A37" stop-opacity="0.6993"/>
<stop offset="0.5417" stop-color="#E46F19" stop-opacity="0.050237"/>
<stop offset="0.5704" stop-color="#EA7317" stop-opacity="0"/>
</linearGradient>
<linearGradient id="paint5_linear_2074_4715" x1="36.3695" y1="36.1594" x2="39.4557" y2="42.1593" gradientUnits="userSpaceOnUse">
<stop stop-color="#7E2542"/>
<stop offset="0.1715" stop-color="#9B3A37" stop-opacity="0.6993"/>
<stop offset="0.5417" stop-color="#E46F19" stop-opacity="0.050237"/>
<stop offset="0.5704" stop-color="#EA7317" stop-opacity="0"/>
</linearGradient>
<linearGradient id="paint6_linear_2074_4715" x1="36.3695" y1="36.1594" x2="39.4557" y2="42.1593" gradientUnits="userSpaceOnUse">
<stop stop-color="#7E2542"/>
<stop offset="0.0908229" stop-color="#993837" stop-opacity="0.8433"/>
<stop offset="0.2312" stop-color="#BC5229" stop-opacity="0.6009"/>
<stop offset="0.3636" stop-color="#D5641F" stop-opacity="0.3726"/>
<stop offset="0.4833" stop-color="#E56F19" stop-opacity="0.1658"/>
<stop offset="0.5794" stop-color="#EA7317" stop-opacity="0"/>
</linearGradient>
<linearGradient id="paint7_linear_2074_4715" x1="41.8954" y1="25.9575" x2="20.1447" y2="73.3627" gradientUnits="userSpaceOnUse">
<stop offset="0.4206" stop-color="#EA7317"/>
<stop offset="1" stop-color="#7E2542"/>
</linearGradient>
<linearGradient id="paint8_linear_2074_4715" x1="44.1255" y1="26.9807" x2="22.3751" y2="74.3863" gradientUnits="userSpaceOnUse">
<stop offset="0.4206" stop-color="#EA7317"/>
<stop offset="1" stop-color="#7E2542"/>
</linearGradient>
<linearGradient id="paint9_linear_2074_4715" x1="44.2269" y1="27.0274" x2="22.4764" y2="74.4321" gradientUnits="userSpaceOnUse">
<stop offset="0.4206" stop-color="#EA7317"/>
<stop offset="1" stop-color="#7E2542"/>
</linearGradient>
<linearGradient id="paint10_linear_2074_4715" x1="0.37552" y1="-36.9725" x2="115.459" y2="186.761" gradientUnits="userSpaceOnUse">
<stop stop-color="#7E2542"/>
<stop offset="0.1715" stop-color="#9B3A37" stop-opacity="0.6993"/>
<stop offset="0.5417" stop-color="#E46F19" stop-opacity="0.050237"/>
<stop offset="0.5704" stop-color="#EA7317" stop-opacity="0"/>
</linearGradient>
<linearGradient id="paint11_linear_2074_4715" x1="-23.3581" y1="-33.1809" x2="98.6642" y2="204.042" gradientUnits="userSpaceOnUse">
<stop stop-color="#7E2542"/>
<stop offset="0.1715" stop-color="#9B3A37" stop-opacity="0.6993"/>
<stop offset="0.5417" stop-color="#E46F19" stop-opacity="0.050237"/>
<stop offset="0.5704" stop-color="#EA7317" stop-opacity="0"/>
</linearGradient>
<linearGradient id="paint12_linear_2074_4715" x1="-15.5771" y1="-37.1832" x2="106.445" y2="200.04" gradientUnits="userSpaceOnUse">
<stop stop-color="#7E2542"/>
<stop offset="0.1715" stop-color="#9B3A37" stop-opacity="0.6993"/>
<stop offset="0.5417" stop-color="#E46F19" stop-opacity="0.050237"/>
<stop offset="0.5704" stop-color="#EA7317" stop-opacity="0"/>
</linearGradient>
<linearGradient id="paint13_linear_2074_4715" x1="28.4449" y1="0.686558" x2="94.7005" y2="129.494" gradientUnits="userSpaceOnUse">
<stop stop-color="#7E2542"/>
<stop offset="0.0908229" stop-color="#993837" stop-opacity="0.8433"/>
<stop offset="0.2312" stop-color="#BC5229" stop-opacity="0.6009"/>
<stop offset="0.3636" stop-color="#D5641F" stop-opacity="0.3726"/>
<stop offset="0.4833" stop-color="#E56F19" stop-opacity="0.1658"/>
<stop offset="0.5794" stop-color="#EA7317" stop-opacity="0"/>
</linearGradient>
<linearGradient id="paint14_linear_2074_4715" x1="5.58405" y1="-39.6516" x2="120.668" y2="184.082" gradientUnits="userSpaceOnUse">
<stop stop-color="#7E2542"/>
<stop offset="0.1715" stop-color="#9B3A37" stop-opacity="0.6993"/>
<stop offset="0.5417" stop-color="#E46F19" stop-opacity="0.050237"/>
<stop offset="0.5704" stop-color="#EA7317" stop-opacity="0"/>
</linearGradient>
<linearGradient id="paint15_linear_2074_4715" x1="26.7749" y1="1.54557" x2="93.0305" y2="130.353" gradientUnits="userSpaceOnUse">
<stop stop-color="#7E2542"/>
<stop offset="0.0908229" stop-color="#993837" stop-opacity="0.8433"/>
<stop offset="0.2312" stop-color="#BC5229" stop-opacity="0.6009"/>
<stop offset="0.3636" stop-color="#D5641F" stop-opacity="0.3726"/>
<stop offset="0.4833" stop-color="#E56F19" stop-opacity="0.1658"/>
<stop offset="0.5794" stop-color="#EA7317" stop-opacity="0"/>
</linearGradient>
<linearGradient id="paint16_linear_2074_4715" x1="35.0119" y1="22.7993" x2="13.2613" y2="70.2044" gradientUnits="userSpaceOnUse">
<stop offset="0.4206" stop-color="#EA7317"/>
<stop offset="1" stop-color="#7E2542"/>
</linearGradient>
<linearGradient id="paint17_linear_2074_4715" x1="15.145" y1="7.49485" x2="81.5" y2="122" gradientUnits="userSpaceOnUse">
<stop stop-color="#7E2542"/>
<stop offset="0.0908229" stop-color="#993837" stop-opacity="0.8433"/>
<stop offset="0.2312" stop-color="#BC5229" stop-opacity="0.6009"/>
<stop offset="0.3636" stop-color="#D5641F" stop-opacity="0.3726"/>
<stop offset="0.4833" stop-color="#E56F19" stop-opacity="0.1658"/>
<stop offset="0.5794" stop-color="#EA7317" stop-opacity="0"/>
</linearGradient>
<linearGradient id="paint18_linear_2074_4715" x1="-3.54551" y1="-34.9556" x2="111.538" y2="188.778" gradientUnits="userSpaceOnUse">
<stop stop-color="#7E2542"/>
<stop offset="0.1715" stop-color="#9B3A37" stop-opacity="0.6993"/>
<stop offset="0.5417" stop-color="#E46F19" stop-opacity="0.050237"/>
<stop offset="0.5704" stop-color="#EA7317" stop-opacity="0"/>
</linearGradient>
<linearGradient id="paint19_linear_2074_4715" x1="17.632" y1="6.21556" x2="112.241" y2="190.144" gradientUnits="userSpaceOnUse">
<stop stop-color="#7E2542"/>
<stop offset="0.0908229" stop-color="#993837" stop-opacity="0.8433"/>
<stop offset="0.2312" stop-color="#BC5229" stop-opacity="0.6009"/>
<stop offset="0.3636" stop-color="#D5641F" stop-opacity="0.3726"/>
<stop offset="0.4833" stop-color="#E56F19" stop-opacity="0.1658"/>
<stop offset="0.5794" stop-color="#EA7317" stop-opacity="0"/>
</linearGradient>
<linearGradient id="paint20_linear_2074_4715" x1="34.9371" y1="22.765" x2="13.1864" y2="70.1702" gradientUnits="userSpaceOnUse">
<stop offset="0.4206" stop-color="#EA7317"/>
<stop offset="1" stop-color="#7E2542"/>
</linearGradient>
<linearGradient id="paint21_linear_2074_4715" x1="-1.40806" y1="8.60169" x2="92.7389" y2="191.633" gradientUnits="userSpaceOnUse">
<stop stop-color="#7E2542"/>
<stop offset="0.0908229" stop-color="#993837" stop-opacity="0.8433"/>
<stop offset="0.2312" stop-color="#BC5229" stop-opacity="0.6009"/>
<stop offset="0.3636" stop-color="#D5641F" stop-opacity="0.3726"/>
<stop offset="0.4833" stop-color="#E56F19" stop-opacity="0.1658"/>
<stop offset="0.5794" stop-color="#EA7317" stop-opacity="0"/>
</linearGradient>
<linearGradient id="paint22_linear_2074_4715" x1="-20.1423" y1="-34.835" x2="101.88" y2="202.388" gradientUnits="userSpaceOnUse">
<stop stop-color="#7E2542"/>
<stop offset="0.1715" stop-color="#9B3A37" stop-opacity="0.6993"/>
<stop offset="0.5417" stop-color="#E46F19" stop-opacity="0.050237"/>
<stop offset="0.5704" stop-color="#EA7317" stop-opacity="0"/>
</linearGradient>
<linearGradient id="paint23_linear_2074_4715" x1="1.4455" y1="7.13382" x2="58.0001" y2="81" gradientUnits="userSpaceOnUse">
<stop stop-color="#7E2542"/>
<stop offset="0.0908229" stop-color="#993837" stop-opacity="0.8433"/>
<stop offset="0.2312" stop-color="#BC5229" stop-opacity="0.6009"/>
<stop offset="0.3636" stop-color="#D5641F" stop-opacity="0.3726"/>
<stop offset="0.4833" stop-color="#E56F19" stop-opacity="0.1658"/>
<stop offset="0.5794" stop-color="#EA7317" stop-opacity="0"/>
</linearGradient>
<linearGradient id="paint24_linear_2074_4715" x1="20.0003" y1="-2.18181" x2="20.0003" y2="45.076" gradientUnits="userSpaceOnUse">
<stop offset="0.5995" stop-color="#EA7317" stop-opacity="0"/>
<stop offset="0.939" stop-color="#7E2542" stop-opacity="0.8"/>
</linearGradient>
<clipPath id="clip0_2074_4715">
<rect width="40" height="40" fill="white"/>
</clipPath>
</defs>
</svg>
