<svg width="40" height="40" viewBox="0 0 40 40" fill="none" xmlns="http://www.w3.org/2000/svg">
<g clip-path="url(#clip0_2096_4680)">
<path d="M35.1414 39.9335H4.79201C2.14457 39.9335 0 37.7889 0 35.1414V4.829C0 2.18156 2.14457 0.0369873 4.79201 0.0369873H35.1414C37.7889 0.0369873 39.9334 2.18156 39.9334 4.829V35.1414C39.9334 37.7889 37.7889 39.9335 35.1414 39.9335Z" fill="url(#paint0_linear_2096_4680)"/>
<path opacity="0.5" d="M1.27196 33.9952V5.97524C1.27196 3.39435 3.36476 1.30154 5.94565 1.30154H33.9952C36.5761 1.30154 38.6689 3.39435 38.6689 5.97524V33.9952C38.6689 36.5761 36.5761 38.6689 33.9952 38.6689H5.93825C3.35737 38.6689 1.27196 36.5761 1.27196 33.9952Z" fill="url(#paint1_linear_2096_4680)"/>
<path d="M39.9852 23.8787L40 20.3365L39.9334 20.2699V23.8196L39.9852 23.8787Z" fill="url(#paint2_linear_2096_4680)"/>
<path d="M39.9334 35.1414L39.963 28.5302L39.9334 28.5006V35.1414Z" fill="url(#paint3_linear_2096_4680)"/>
<path d="M39.4602 37.2194C39.5267 37.0789 39.5859 36.9384 39.6451 36.7905C39.5859 36.9384 39.5267 37.0789 39.4602 37.2194Z" fill="url(#paint4_linear_2096_4680)"/>
<path d="M39.4602 37.2194C39.5267 37.0789 39.5859 36.9384 39.6451 36.7905C39.5859 36.9384 39.5267 37.0789 39.4602 37.2194Z" fill="url(#paint5_linear_2096_4680)"/>
<path d="M38.7059 38.3435C38.6467 38.4101 38.5875 38.4692 38.5284 38.5358C38.5949 38.4692 38.6541 38.4027 38.7059 38.3435Z" fill="url(#paint6_linear_2096_4680)"/>
<path d="M38.7059 38.3435C38.6467 38.4101 38.5875 38.4692 38.5284 38.5358C38.5949 38.4692 38.6541 38.4027 38.7059 38.3435Z" fill="url(#paint7_linear_2096_4680)"/>
<path d="M37.6262 39.2383C37.7223 39.1791 37.8111 39.12 37.8998 39.0608C37.8111 39.12 37.7223 39.1865 37.6262 39.2383Z" fill="url(#paint8_linear_2096_4680)"/>
<path d="M37.6262 39.2383C37.7223 39.1791 37.8111 39.12 37.8998 39.0608C37.8111 39.12 37.7223 39.1865 37.6262 39.2383Z" fill="url(#paint9_linear_2096_4680)"/>
<path d="M39.1126 37.8185C39.2383 37.6262 39.3566 37.4265 39.4602 37.2195C39.364 37.4265 39.2457 37.6262 39.1126 37.8185Z" fill="url(#paint10_linear_2096_4680)"/>
<path d="M39.1126 37.8185C39.2383 37.6262 39.3566 37.4265 39.4602 37.2195C39.364 37.4265 39.2457 37.6262 39.1126 37.8185Z" fill="url(#paint11_linear_2096_4680)"/>
<path d="M39.9334 28.5007L39.963 28.5302L39.9852 23.8787L39.9334 23.8196V28.5007Z" fill="url(#paint12_linear_2096_4680)"/>
<path d="M39.9334 28.5007L39.963 28.5302L39.9852 23.8787L39.9334 23.8196V28.5007Z" fill="url(#paint13_linear_2096_4680)"/>
<path d="M36.443 39.756C36.0289 39.8743 35.5926 39.9335 35.1415 39.9335H29.2254H29.1071H35.1415C35.5926 39.9335 36.0289 39.8669 36.443 39.756Z" fill="url(#paint14_linear_2096_4680)"/>
<path d="M38.7059 38.3435C38.802 38.24 38.8907 38.1291 38.9795 38.0107C38.8981 38.1217 38.802 38.2326 38.7059 38.3435Z" fill="url(#paint15_linear_2096_4680)"/>
<path d="M38.7059 38.3435C38.802 38.24 38.8907 38.1291 38.9795 38.0107C38.8981 38.1217 38.802 38.2326 38.7059 38.3435Z" fill="url(#paint16_linear_2096_4680)"/>
<path d="M37.8998 39.0608C38.0625 38.9499 38.2178 38.8242 38.3657 38.6911C38.2178 38.8242 38.0625 38.9425 37.8998 39.0608Z" fill="url(#paint17_linear_2096_4680)"/>
<path d="M37.8998 39.0608C38.0625 38.9499 38.2178 38.8242 38.3657 38.6911C38.2178 38.8242 38.0625 38.9425 37.8998 39.0608Z" fill="url(#paint18_linear_2096_4680)"/>
<path d="M37.005 39.5563C36.8201 39.6303 36.6353 39.6968 36.443 39.7486C36.6353 39.6968 36.8275 39.6377 37.005 39.5563Z" fill="url(#paint19_linear_2096_4680)"/>
<path d="M37.005 39.5563C36.8201 39.6303 36.6353 39.6968 36.443 39.7486C36.6353 39.6968 36.8275 39.6377 37.005 39.5563Z" fill="url(#paint20_linear_2096_4680)"/>
<path d="M38.5284 38.5284C38.4766 38.5801 38.4175 38.6319 38.3583 38.6837C38.4175 38.6393 38.4766 38.5875 38.5284 38.5284Z" fill="url(#paint21_linear_2096_4680)"/>
<path d="M38.5284 38.5284C38.4766 38.5801 38.4175 38.6319 38.3583 38.6837C38.4175 38.6393 38.4766 38.5875 38.5284 38.5284Z" fill="url(#paint22_linear_2096_4680)"/>
<path d="M37.005 39.5563C37.1455 39.4971 37.286 39.4306 37.4265 39.3566C37.2934 39.4306 37.1529 39.4971 37.005 39.5563Z" fill="url(#paint23_linear_2096_4680)"/>
<path d="M37.005 39.5563C37.1455 39.4971 37.286 39.4306 37.4265 39.3566C37.2934 39.4306 37.1529 39.4971 37.005 39.5563Z" fill="url(#paint24_linear_2096_4680)"/>
<path opacity="0.3" d="M10.3975 29.6321L11.3515 30.4308L20.6545 23.5681L15.8329 18.8944L10.3975 29.6321Z" fill="url(#paint25_linear_2096_4680)"/>
<g opacity="0.7">
<path opacity="0.8" d="M27.4949 13.9176L39.9334 26.2526V24.034L28.7003 12.897L27.4949 13.9176Z" fill="url(#paint26_linear_2096_4680)"/>
<path opacity="0.8" d="M23.4054 24.315L38.1142 38.8981C39.2235 38.0181 39.9408 36.6648 39.9408 35.1414V28.3897L26.1342 14.7162L23.4054 24.315Z" fill="url(#paint27_linear_2096_4680)"/>
<path opacity="0.7" d="M35.5112 39.9187C36.4873 39.8447 37.3747 39.4824 38.0995 38.9129L23.398 24.3298L23.4054 24.3077L20.8097 21.7268L11.7656 30.5565L11.773 30.5639L26.3413 30.8671L35.5112 39.9187Z" fill="url(#paint28_linear_2096_4680)"/>
<path opacity="0.8" d="M38.0995 38.9129L38.1069 38.9055L23.4054 24.315L23.398 24.3372L38.0995 38.9129Z" fill="url(#paint29_linear_2096_4680)"/>
<path opacity="0.7" d="M38.0995 38.9129L38.1069 38.9055L23.4054 24.315L23.398 24.3372L38.0995 38.9129Z" fill="url(#paint30_linear_2096_4680)"/>
<path opacity="0.7" d="M11.773 30.5565H11.4846L20.9429 39.9334H21.2313L11.773 30.5565Z" fill="url(#paint31_linear_2096_4680)"/>
<path opacity="0.7" d="M35.1414 39.9334C35.2671 39.9334 35.3854 39.926 35.5112 39.9186L26.3413 30.8671L11.773 30.5639L21.2313 39.9334H35.1414Z" fill="url(#paint32_linear_2096_4680)"/>
<path opacity="0.7" d="M35.1414 39.9334C35.2671 39.9334 35.3854 39.926 35.5112 39.9186L26.3413 30.8671L11.773 30.5639L21.2313 39.9334H35.1414Z" fill="url(#paint33_linear_2096_4680)"/>
</g>
<path d="M10.6045 29.4176L14.9603 23.5977C15.012 23.5312 15.012 23.435 14.9676 23.3611C14.5831 22.7695 14.5831 21.9708 15.0268 21.3644C15.6036 20.5879 16.6981 20.4178 17.4746 20.9947C18.2511 21.5715 18.4211 22.6659 17.8443 23.4424C17.4228 24.0118 16.7277 24.2485 16.0843 24.1154C16.003 24.1006 15.9216 24.1302 15.8772 24.1967L11.5585 30.1202C11.5215 30.1646 11.5141 30.2163 11.5141 30.2681H11.5067V30.7044C11.5067 30.9484 11.699 31.1407 11.9431 31.1407H26.1934C26.4374 31.1407 26.6297 30.9484 26.6297 30.7044C26.6297 30.4604 26.4374 30.2681 26.1934 30.2681H12.5864L23.7234 25.513C24.0562 25.3725 24.2337 25.0176 24.1671 24.633C23.6717 21.8969 24.6404 18.606 26.4448 15.7072C26.6593 15.3596 26.5262 14.8715 26.149 14.5905L25.0102 13.7475L24.0266 13.0228L23.2797 12.4755L21.1573 10.9078L21.113 10.8708C20.7358 10.6267 20.2625 10.6563 20.0037 10.9447C17.763 13.5256 14.9011 15.4188 12.1427 15.7515C11.7582 15.7959 11.4772 16.0695 11.4328 16.4319L10.0869 29.1958C10.0647 29.4842 10.4419 29.6469 10.6045 29.4176Z" fill="white"/>
<path d="M21.5863 9.49531L27.3175 13.7549C27.4358 13.8436 27.5689 13.8954 27.7094 13.9102C27.983 13.9398 28.2714 13.8288 28.4415 13.5922C28.7077 13.2372 28.6338 12.727 28.2788 12.4607L22.5476 8.20117C22.1926 7.93495 21.6824 8.0089 21.4162 8.36386C21.1499 8.72622 21.2239 9.22908 21.5863 9.49531Z" fill="white"/>
<path d="M4.64411 39.8965C2.07802 39.8965 0 37.8184 0 35.2597V4.79201C0 2.14457 2.14457 0 4.79201 0H35.0601C37.7519 0 39.9334 2.18155 39.9334 4.86596V23.8491V32.6641V35.1414C39.9334 37.7815 37.7815 39.9186 35.1414 39.9039C34.1505 39.8965 33.2335 39.8965 32.6567 39.8965H4.64411Z" fill="url(#paint34_linear_2096_4680)"/>
</g>
<defs>
<linearGradient id="paint0_linear_2096_4680" x1="21.5211" y1="16.5982" x2="-0.193321" y2="63.9244" gradientUnits="userSpaceOnUse">
<stop offset="0.4206" stop-color="#EA7317"/>
<stop offset="1" stop-color="#7E2542"/>
</linearGradient>
<linearGradient id="paint1_linear_2096_4680" x1="-0.336932" y1="-5.42489" x2="41.2613" y2="46.6344" gradientUnits="userSpaceOnUse">
<stop stop-color="#7E2542" stop-opacity="0.3"/>
<stop offset="0.0070214" stop-color="#822840" stop-opacity="0.3085"/>
<stop offset="0.0713146" stop-color="#A23F34" stop-opacity="0.3862"/>
<stop offset="0.1412" stop-color="#BC5229" stop-opacity="0.4705"/>
<stop offset="0.2175" stop-color="#D16121" stop-opacity="0.5628"/>
<stop offset="0.3037" stop-color="#DF6B1B" stop-opacity="0.6669"/>
<stop offset="0.4079" stop-color="#E77118" stop-opacity="0.7928"/>
<stop offset="0.5794" stop-color="#EA7317"/>
</linearGradient>
<linearGradient id="paint2_linear_2096_4680" x1="27.1313" y1="-2.8743" x2="81.9296" y2="103.664" gradientUnits="userSpaceOnUse">
<stop stop-color="#7E2542"/>
<stop offset="0.3161" stop-color="#BB512A" stop-opacity="0.4546"/>
<stop offset="0.5794" stop-color="#EA7317" stop-opacity="0"/>
</linearGradient>
<linearGradient id="paint3_linear_2096_4680" x1="23.1476" y1="-0.82568" x2="77.9446" y2="105.715" gradientUnits="userSpaceOnUse">
<stop stop-color="#7E2542"/>
<stop offset="0.3161" stop-color="#BB512A" stop-opacity="0.4546"/>
<stop offset="0.5794" stop-color="#EA7317" stop-opacity="0"/>
</linearGradient>
<linearGradient id="paint4_linear_2096_4680" x1="20.7326" y1="0.417335" x2="75.5317" y2="106.954" gradientUnits="userSpaceOnUse">
<stop stop-color="#7E2542"/>
<stop offset="0.3161" stop-color="#BB512A" stop-opacity="0.4546"/>
<stop offset="0.5794" stop-color="#EA7317" stop-opacity="0"/>
</linearGradient>
<linearGradient id="paint5_linear_2096_4680" x1="30.3985" y1="19.2084" x2="72.1363" y2="100.352" gradientUnits="userSpaceOnUse">
<stop stop-color="#7E2542"/>
<stop offset="0.1709" stop-color="#A84331" stop-opacity="0.705"/>
<stop offset="0.3457" stop-color="#CC5D23" stop-opacity="0.4034"/>
<stop offset="0.4881" stop-color="#E26D1A" stop-opacity="0.1576"/>
<stop offset="0.5794" stop-color="#EA7317" stop-opacity="0"/>
</linearGradient>
<linearGradient id="paint6_linear_2096_4680" x1="19.4131" y1="1.096" x2="74.2128" y2="107.632" gradientUnits="userSpaceOnUse">
<stop stop-color="#7E2542"/>
<stop offset="0.3161" stop-color="#BB512A" stop-opacity="0.4546"/>
<stop offset="0.5794" stop-color="#EA7317" stop-opacity="0"/>
</linearGradient>
<linearGradient id="paint7_linear_2096_4680" x1="29.0789" y1="19.8872" x2="70.8171" y2="101.031" gradientUnits="userSpaceOnUse">
<stop stop-color="#7E2542"/>
<stop offset="0.1709" stop-color="#A84331" stop-opacity="0.705"/>
<stop offset="0.3457" stop-color="#CC5D23" stop-opacity="0.4034"/>
<stop offset="0.4881" stop-color="#E26D1A" stop-opacity="0.1576"/>
<stop offset="0.5794" stop-color="#EA7317" stop-opacity="0"/>
</linearGradient>
<linearGradient id="paint8_linear_2096_4680" x1="18.4447" y1="1.59475" x2="73.2426" y2="108.13" gradientUnits="userSpaceOnUse">
<stop stop-color="#7E2542"/>
<stop offset="0.3161" stop-color="#BB512A" stop-opacity="0.4546"/>
<stop offset="0.5794" stop-color="#EA7317" stop-opacity="0"/>
</linearGradient>
<linearGradient id="paint9_linear_2096_4680" x1="28.1105" y1="20.3856" x2="69.8474" y2="101.528" gradientUnits="userSpaceOnUse">
<stop stop-color="#7E2542"/>
<stop offset="0.1709" stop-color="#A84331" stop-opacity="0.705"/>
<stop offset="0.3457" stop-color="#CC5D23" stop-opacity="0.4034"/>
<stop offset="0.4881" stop-color="#E26D1A" stop-opacity="0.1576"/>
<stop offset="0.5794" stop-color="#EA7317" stop-opacity="0"/>
</linearGradient>
<linearGradient id="paint10_linear_2096_4680" x1="20.3146" y1="0.632388" x2="75.115" y2="107.168" gradientUnits="userSpaceOnUse">
<stop stop-color="#7E2542"/>
<stop offset="0.3161" stop-color="#BB512A" stop-opacity="0.4546"/>
<stop offset="0.5794" stop-color="#EA7317" stop-opacity="0"/>
</linearGradient>
<linearGradient id="paint11_linear_2096_4680" x1="29.9803" y1="19.4236" x2="71.719" y2="100.567" gradientUnits="userSpaceOnUse">
<stop stop-color="#7E2542"/>
<stop offset="0.1709" stop-color="#A84331" stop-opacity="0.705"/>
<stop offset="0.3457" stop-color="#CC5D23" stop-opacity="0.4034"/>
<stop offset="0.4881" stop-color="#E26D1A" stop-opacity="0.1576"/>
<stop offset="0.5794" stop-color="#EA7317" stop-opacity="0"/>
</linearGradient>
<linearGradient id="paint12_linear_2096_4680" x1="25.4556" y1="-2.012" x2="80.2554" y2="104.524" gradientUnits="userSpaceOnUse">
<stop stop-color="#7E2542"/>
<stop offset="0.3161" stop-color="#BB512A" stop-opacity="0.4546"/>
<stop offset="0.5794" stop-color="#EA7317" stop-opacity="0"/>
</linearGradient>
<linearGradient id="paint13_linear_2096_4680" x1="31.5583" y1="9.85239" x2="73.2967" y2="90.9957" gradientUnits="userSpaceOnUse">
<stop stop-color="#7E2542"/>
<stop offset="0.0591127" stop-color="#8F313B" stop-opacity="0.898"/>
<stop offset="0.2167" stop-color="#B64E2C" stop-opacity="0.6261"/>
<stop offset="0.3612" stop-color="#D36220" stop-opacity="0.3766"/>
<stop offset="0.4868" stop-color="#E46F19" stop-opacity="0.1598"/>
<stop offset="0.5794" stop-color="#EA7317" stop-opacity="0"/>
</linearGradient>
<linearGradient id="paint14_linear_2096_4680" x1="39.6298" y1="24.9068" x2="17.9153" y2="72.2332" gradientUnits="userSpaceOnUse">
<stop offset="0.4206" stop-color="#EA7317"/>
<stop offset="1" stop-color="#7E2542"/>
</linearGradient>
<linearGradient id="paint15_linear_2096_4680" x1="29.3636" y1="19.7408" x2="71.1021" y2="100.884" gradientUnits="userSpaceOnUse">
<stop stop-color="#7E2542"/>
<stop offset="0.1709" stop-color="#A84331" stop-opacity="0.705"/>
<stop offset="0.3457" stop-color="#CC5D23" stop-opacity="0.4034"/>
<stop offset="0.4881" stop-color="#E26D1A" stop-opacity="0.1576"/>
<stop offset="0.5794" stop-color="#EA7317" stop-opacity="0"/>
</linearGradient>
<linearGradient id="paint16_linear_2096_4680" x1="44.0109" y1="26.917" x2="22.2964" y2="74.2433" gradientUnits="userSpaceOnUse">
<stop offset="0.4206" stop-color="#EA7317"/>
<stop offset="1" stop-color="#7E2542"/>
</linearGradient>
<linearGradient id="paint17_linear_2096_4680" x1="28.5143" y1="20.1778" x2="70.2521" y2="101.321" gradientUnits="userSpaceOnUse">
<stop stop-color="#7E2542"/>
<stop offset="0.1709" stop-color="#A84331" stop-opacity="0.705"/>
<stop offset="0.3457" stop-color="#CC5D23" stop-opacity="0.4034"/>
<stop offset="0.4881" stop-color="#E26D1A" stop-opacity="0.1576"/>
<stop offset="0.5794" stop-color="#EA7317" stop-opacity="0"/>
</linearGradient>
<linearGradient id="paint18_linear_2096_4680" x1="43.6863" y1="26.7681" x2="21.9721" y2="74.0941" gradientUnits="userSpaceOnUse">
<stop offset="0.4206" stop-color="#EA7317"/>
<stop offset="1" stop-color="#7E2542"/>
</linearGradient>
<linearGradient id="paint19_linear_2096_4680" x1="27.0853" y1="20.9129" x2="68.8249" y2="102.055" gradientUnits="userSpaceOnUse">
<stop stop-color="#7E2542"/>
<stop offset="0.1709" stop-color="#A84331" stop-opacity="0.705"/>
<stop offset="0.3457" stop-color="#CC5D23" stop-opacity="0.4034"/>
<stop offset="0.4881" stop-color="#E26D1A" stop-opacity="0.1576"/>
<stop offset="0.5794" stop-color="#EA7317" stop-opacity="0"/>
</linearGradient>
<linearGradient id="paint20_linear_2096_4680" x1="42.8205" y1="26.3709" x2="21.1053" y2="73.6964" gradientUnits="userSpaceOnUse">
<stop offset="0.4206" stop-color="#EA7317"/>
<stop offset="1" stop-color="#7E2542"/>
</linearGradient>
<linearGradient id="paint21_linear_2096_4680" x1="28.8716" y1="19.9944" x2="70.6083" y2="101.136" gradientUnits="userSpaceOnUse">
<stop stop-color="#7E2542"/>
<stop offset="0.1709" stop-color="#A84331" stop-opacity="0.705"/>
<stop offset="0.3457" stop-color="#CC5D23" stop-opacity="0.4034"/>
<stop offset="0.4881" stop-color="#E26D1A" stop-opacity="0.1576"/>
<stop offset="0.5794" stop-color="#EA7317" stop-opacity="0"/>
</linearGradient>
<linearGradient id="paint22_linear_2096_4680" x1="43.8466" y1="26.8419" x2="22.1331" y2="74.1673" gradientUnits="userSpaceOnUse">
<stop offset="0.4206" stop-color="#EA7317"/>
<stop offset="1" stop-color="#7E2542"/>
</linearGradient>
<linearGradient id="paint23_linear_2096_4680" x1="27.5539" y1="20.6715" x2="69.2927" y2="101.815" gradientUnits="userSpaceOnUse">
<stop stop-color="#7E2542"/>
<stop offset="0.1709" stop-color="#A84331" stop-opacity="0.705"/>
<stop offset="0.3457" stop-color="#CC5D23" stop-opacity="0.4034"/>
<stop offset="0.4881" stop-color="#E26D1A" stop-opacity="0.1576"/>
<stop offset="0.5794" stop-color="#EA7317" stop-opacity="0"/>
</linearGradient>
<linearGradient id="paint24_linear_2096_4680" x1="43.1509" y1="26.5223" x2="21.4362" y2="73.8489" gradientUnits="userSpaceOnUse">
<stop offset="0.4206" stop-color="#EA7317"/>
<stop offset="1" stop-color="#7E2542"/>
</linearGradient>
<linearGradient id="paint25_linear_2096_4680" x1="11.0057" y1="21.6233" x2="20.5375" y2="32.1141" gradientUnits="userSpaceOnUse">
<stop stop-color="#7E2542"/>
<stop offset="0.1151" stop-color="#822841" stop-opacity="0.7981"/>
<stop offset="0.2239" stop-color="#8D303C" stop-opacity="0.6075"/>
<stop offset="0.33" stop-color="#A03E34" stop-opacity="0.4214"/>
<stop offset="0.4345" stop-color="#BB512A" stop-opacity="0.2381"/>
<stop offset="0.537" stop-color="#DD6A1C" stop-opacity="0.0584877"/>
<stop offset="0.5704" stop-color="#EA7317" stop-opacity="0"/>
</linearGradient>
<linearGradient id="paint26_linear_2096_4680" x1="24.2106" y1="9.35346" x2="50.863" y2="36.339" gradientUnits="userSpaceOnUse">
<stop stop-color="#7E2542"/>
<stop offset="0.1151" stop-color="#822841" stop-opacity="0.7981"/>
<stop offset="0.2239" stop-color="#8D303C" stop-opacity="0.6075"/>
<stop offset="0.33" stop-color="#A03E34" stop-opacity="0.4214"/>
<stop offset="0.4345" stop-color="#BB512A" stop-opacity="0.2381"/>
<stop offset="0.537" stop-color="#DD6A1C" stop-opacity="0.0584877"/>
<stop offset="0.5704" stop-color="#EA7317" stop-opacity="0"/>
</linearGradient>
<linearGradient id="paint27_linear_2096_4680" x1="22.5874" y1="16.0849" x2="47.4907" y2="44.2365" gradientUnits="userSpaceOnUse">
<stop stop-color="#7E2542"/>
<stop offset="0.1151" stop-color="#822841" stop-opacity="0.7981"/>
<stop offset="0.2239" stop-color="#8D303C" stop-opacity="0.6075"/>
<stop offset="0.33" stop-color="#A03E34" stop-opacity="0.4214"/>
<stop offset="0.4345" stop-color="#BB512A" stop-opacity="0.2381"/>
<stop offset="0.537" stop-color="#DD6A1C" stop-opacity="0.0584877"/>
<stop offset="0.5704" stop-color="#EA7317" stop-opacity="0"/>
</linearGradient>
<linearGradient id="paint28_linear_2096_4680" x1="16.1624" y1="20.6395" x2="34.1528" y2="49.5407" gradientUnits="userSpaceOnUse">
<stop stop-color="#7E2542"/>
<stop offset="0.1151" stop-color="#822841" stop-opacity="0.7981"/>
<stop offset="0.2239" stop-color="#8D303C" stop-opacity="0.6075"/>
<stop offset="0.33" stop-color="#A03E34" stop-opacity="0.4214"/>
<stop offset="0.4345" stop-color="#BB512A" stop-opacity="0.2381"/>
<stop offset="0.537" stop-color="#DD6A1C" stop-opacity="0.0584877"/>
<stop offset="0.5704" stop-color="#EA7317" stop-opacity="0"/>
</linearGradient>
<linearGradient id="paint29_linear_2096_4680" x1="19.4615" y1="18.8502" x2="44.3648" y2="47.0018" gradientUnits="userSpaceOnUse">
<stop stop-color="#7E2542"/>
<stop offset="0.1151" stop-color="#822841" stop-opacity="0.7981"/>
<stop offset="0.2239" stop-color="#8D303C" stop-opacity="0.6075"/>
<stop offset="0.33" stop-color="#A03E34" stop-opacity="0.4214"/>
<stop offset="0.4345" stop-color="#BB512A" stop-opacity="0.2381"/>
<stop offset="0.537" stop-color="#DD6A1C" stop-opacity="0.0584877"/>
<stop offset="0.5704" stop-color="#EA7317" stop-opacity="0"/>
</linearGradient>
<linearGradient id="paint30_linear_2096_4680" x1="21.755" y1="17.1582" x2="39.7454" y2="46.0594" gradientUnits="userSpaceOnUse">
<stop stop-color="#7E2542"/>
<stop offset="0.1151" stop-color="#822841" stop-opacity="0.7981"/>
<stop offset="0.2239" stop-color="#8D303C" stop-opacity="0.6075"/>
<stop offset="0.33" stop-color="#A03E34" stop-opacity="0.4214"/>
<stop offset="0.4345" stop-color="#BB512A" stop-opacity="0.2381"/>
<stop offset="0.537" stop-color="#DD6A1C" stop-opacity="0.0584877"/>
<stop offset="0.5704" stop-color="#EA7317" stop-opacity="0"/>
</linearGradient>
<linearGradient id="paint31_linear_2096_4680" x1="8.48029" y1="26.5757" x2="47.048" y2="69.0236" gradientUnits="userSpaceOnUse">
<stop stop-color="#7E2542"/>
<stop offset="0.1151" stop-color="#822841" stop-opacity="0.7981"/>
<stop offset="0.2239" stop-color="#8D303C" stop-opacity="0.6075"/>
<stop offset="0.33" stop-color="#A03E34" stop-opacity="0.4214"/>
<stop offset="0.4345" stop-color="#BB512A" stop-opacity="0.2381"/>
<stop offset="0.537" stop-color="#DD6A1C" stop-opacity="0.0584877"/>
<stop offset="0.5704" stop-color="#EA7317" stop-opacity="0"/>
</linearGradient>
<linearGradient id="paint32_linear_2096_4680" x1="15.0039" y1="21.3606" x2="32.9943" y2="50.2618" gradientUnits="userSpaceOnUse">
<stop stop-color="#7E2542"/>
<stop offset="0.1151" stop-color="#822841" stop-opacity="0.7981"/>
<stop offset="0.2239" stop-color="#8D303C" stop-opacity="0.6075"/>
<stop offset="0.33" stop-color="#A03E34" stop-opacity="0.4214"/>
<stop offset="0.4345" stop-color="#BB512A" stop-opacity="0.2381"/>
<stop offset="0.537" stop-color="#DD6A1C" stop-opacity="0.0584877"/>
<stop offset="0.5704" stop-color="#EA7317" stop-opacity="0"/>
</linearGradient>
<linearGradient id="paint33_linear_2096_4680" x1="12.4744" y1="22.9468" x2="51.042" y2="65.3946" gradientUnits="userSpaceOnUse">
<stop stop-color="#7E2542"/>
<stop offset="0.1151" stop-color="#822841" stop-opacity="0.7981"/>
<stop offset="0.2239" stop-color="#8D303C" stop-opacity="0.6075"/>
<stop offset="0.33" stop-color="#A03E34" stop-opacity="0.4214"/>
<stop offset="0.4345" stop-color="#BB512A" stop-opacity="0.2381"/>
<stop offset="0.537" stop-color="#DD6A1C" stop-opacity="0.0584877"/>
<stop offset="0.5704" stop-color="#EA7317" stop-opacity="0"/>
</linearGradient>
<linearGradient id="paint34_linear_2096_4680" x1="19.9671" y1="-2.17818" x2="19.9671" y2="45.001" gradientUnits="userSpaceOnUse">
<stop offset="0.5995" stop-color="#EA7317" stop-opacity="0"/>
<stop offset="0.939" stop-color="#7E2542" stop-opacity="0.8"/>
</linearGradient>
<clipPath id="clip0_2096_4680">
<rect width="40" height="39.9334" fill="white"/>
</clipPath>
</defs>
</svg>
