<svg width="40" height="40" viewBox="0 0 40 40" fill="none" xmlns="http://www.w3.org/2000/svg">
<rect width="40" height="40" rx="5" fill="#E86A92"/>
<path d="M35.3581 40H4.6419C2.08349 40 0 37.9165 0 35.3581V4.68786C0 2.11413 2.08349 0.0306396 4.6419 0.0306396H35.3581C37.9165 0.0306396 40 2.11413 40 4.67254V35.3428C40 37.9165 37.9165 40 35.3581 40Z" fill="url(#paint0_linear_2314_4483)"/>
<path opacity="0.4" d="M1.27155 34.8066V5.22405C1.27155 3.06396 3.03332 1.30219 5.19341 1.30219H34.8066C36.9667 1.30219 38.7285 3.06396 38.7285 5.22405V34.8066C38.7285 36.9667 36.9667 38.7285 34.8066 38.7285H5.19341C3.03332 38.7285 1.27155 36.982 1.27155 34.8066Z" fill="url(#paint1_linear_2314_4483)"/>
<path d="M4.65722 39.9694C2.08349 39.9694 0 37.8859 0 35.3121V4.7951C0 2.14477 2.14477 0 4.7951 0H35.113C37.8093 0 40 2.17541 40 4.8717V23.8989V32.7231V35.2049C40 37.8552 37.8399 39.9847 35.2049 39.9694C34.2091 39.9694 33.2899 39.954 32.7078 39.954H4.65722V39.9694Z" fill="url(#paint2_linear_2314_4483)"/>
<path opacity="0.8" d="M40 31.3443L38.8204 30.1647L40 31.3443Z" fill="url(#paint3_linear_2314_4483)"/>
<path d="M40 31.3443L38.8204 30.1647L40 31.3443Z" fill="url(#paint4_linear_2314_4483)"/>
<path d="M15.4424 27.7288L8.51781 22.612L6.61815 15.4424L13.558 9.39104L23.424 8.70165L40 25.1704V23.8989V4.8717C40 2.17541 37.8093 0 35.113 0H4.7951C2.14477 0 0 2.14477 0 4.7951V35.3121C0 37.8859 2.08349 39.954 4.65722 39.954H23.2401L10.8311 27.5756L15.4424 27.7288Z" fill="url(#paint5_linear_2314_4483)"/>
<path opacity="0.8" d="M13.558 9.37572L6.61815 15.4424L8.5178 22.612L15.4424 27.7288L18.92 27.8361L12.8073 21.7235L21.463 14.5844L40 34.3623V32.7231V25.1551L23.424 8.68633L13.558 9.37572Z" fill="url(#paint6_linear_2314_4483)"/>
<path d="M13.558 9.37572L6.61815 15.4424L8.5178 22.612L15.4424 27.7288L18.92 27.8361L12.8073 21.7235L21.463 14.5844L40 34.3623V32.7231V25.1551L23.424 8.68633L13.558 9.37572Z" fill="url(#paint7_linear_2314_4483)"/>
<path opacity="0.8" d="M18.9353 27.8514L16.6373 28.6174L15.4423 27.7288L10.8311 27.5756L23.2401 39.9694H31.0532L18.9353 27.8514Z" fill="url(#paint8_linear_2314_4483)"/>
<path d="M18.9353 27.8514L16.6373 28.6174L15.4423 27.7288L10.8311 27.5756L23.2401 39.9694H31.0532L18.9353 27.8514Z" fill="url(#paint9_linear_2314_4483)"/>
<path opacity="0.8" d="M15.4424 27.7288L16.6373 28.6174L18.9353 27.8514L18.9199 27.8361L15.4424 27.7288Z" fill="url(#paint10_linear_2314_4483)"/>
<path opacity="0.8" d="M15.4424 27.7288L16.6373 28.6174L18.9353 27.8514L18.9199 27.8361L15.4424 27.7288Z" fill="url(#paint11_linear_2314_4483)"/>
<path d="M15.4424 27.7288L16.6373 28.6174L18.9353 27.8514L18.9199 27.8361L15.4424 27.7288Z" fill="url(#paint12_linear_2314_4483)"/>
<path opacity="0.5" d="M18.9812 27.8361L23.2555 27.974L33.9027 39.9694C34.301 39.9694 34.7453 39.9694 35.1896 39.9694C36.2773 39.9694 37.2884 39.617 38.085 39.0042L24.8794 25.8905L18.9812 27.8361Z" fill="url(#paint13_linear_2314_4483)"/>
<path opacity="0.8" d="M40 35.2049V34.3623L21.463 14.5844L12.8073 21.7235L18.9199 27.8361H18.9812L24.8793 25.8905L38.1003 39.0195C39.2493 38.1463 40 36.7675 40 35.2049Z" fill="url(#paint14_linear_2314_4483)"/>
<path opacity="0.5" d="M40 35.2049V34.3623L21.463 14.5844L12.8073 21.7235L18.9199 27.8361H18.9812L24.8793 25.8905L38.1003 39.0195C39.2493 38.1463 40 36.7675 40 35.2049Z" fill="url(#paint15_linear_2314_4483)"/>
<path d="M40 35.2049V34.3623L21.463 14.5844L12.8073 21.7235L18.9199 27.8361H18.9812L24.8793 25.8905L38.1003 39.0195C39.2493 38.1463 40 36.7675 40 35.2049Z" fill="url(#paint16_linear_2314_4483)"/>
<path opacity="0.8" d="M18.9812 27.8361L18.9353 27.8514L31.0532 39.9694H32.7078C33.0295 39.9694 33.4431 39.9694 33.9027 39.9694L23.2555 27.974L18.9812 27.8361Z" fill="url(#paint17_linear_2314_4483)"/>
<path opacity="0.5" d="M18.9812 27.8361L18.9353 27.8514L31.0532 39.9694H32.7078C33.0295 39.9694 33.4431 39.9694 33.9027 39.9694L23.2555 27.974L18.9812 27.8361Z" fill="url(#paint18_linear_2314_4483)"/>
<path d="M18.9812 27.8361L18.9353 27.8514L31.0532 39.9694H32.7078C33.0295 39.9694 33.4431 39.9694 33.9027 39.9694L23.2555 27.974L18.9812 27.8361Z" fill="url(#paint19_linear_2314_4483)"/>
<path opacity="0.8" d="M18.92 27.8361L18.9353 27.8514L18.9812 27.8361H18.92Z" fill="url(#paint20_linear_2314_4483)"/>
<path opacity="0.8" d="M18.92 27.8361L18.9353 27.8514L18.9812 27.8361H18.92Z" fill="url(#paint21_linear_2314_4483)"/>
<path opacity="0.5" d="M18.92 27.8361L18.9353 27.8514L18.9812 27.8361H18.92Z" fill="url(#paint22_linear_2314_4483)"/>
<path d="M18.92 27.8361L18.9353 27.8514L18.9812 27.8361H18.92Z" fill="url(#paint23_linear_2314_4483)"/>
<path opacity="0.5" d="M18.9812 27.8361L23.2555 27.974L33.9027 39.9694C34.301 39.9694 34.7453 39.9694 35.1896 39.9694C36.2773 39.9694 37.2884 39.617 38.085 39.0042L24.8794 25.8905L18.9812 27.8361Z" fill="url(#paint24_linear_2314_4483)"/>
<path d="M17.5565 12.9299C17.388 12.9299 17.2654 13.1138 17.3267 13.267C17.5565 13.8031 17.6331 14.4313 17.4492 15.09C17.1428 16.193 16.2083 17.0203 15.09 17.1735C14.1402 17.2961 13.2823 16.959 12.6848 16.3462C12.5622 16.2237 12.3784 16.2696 12.3018 16.4228C12.0107 17.0969 11.8422 17.8476 11.8422 18.6289C11.8422 21.9073 14.6151 24.5423 17.9548 24.3125C20.7736 24.1134 23.041 21.846 23.2401 19.0272C23.4852 15.7028 20.8502 12.9299 17.5565 12.9299Z" fill="white"/>
<path d="M30.1953 31.2984L26.2888 26.7484C26.1662 26.6105 26.0283 26.5033 25.8751 26.4113C27.7901 24.3738 28.9544 21.6316 28.9544 18.6136C28.9544 12.3171 23.8529 7.21563 17.5565 7.21563C11.26 7.21563 6.15855 12.3171 6.15855 18.6136C6.15855 24.91 11.26 30.0115 17.5565 30.0115C19.8085 30.0115 21.9073 29.3527 23.6691 28.2344C23.7304 28.4182 23.8223 28.5868 23.9602 28.74L27.8667 33.2899C28.4182 33.9334 29.3834 34.01 30.0268 33.4585C30.6856 32.9069 30.7468 31.9418 30.1953 31.2984ZM9.00804 18.6289C9.00804 13.9104 12.838 10.0804 17.5565 10.0804C22.275 10.0804 26.1049 13.9104 26.1049 18.6289C26.1049 23.3474 22.275 27.1773 17.5565 27.1773C12.8533 27.1773 9.00804 23.3474 9.00804 18.6289Z" fill="white"/>
<defs>
<linearGradient id="paint0_linear_2314_4483" x1="-0.528564" y1="42.2565" x2="38.2169" y2="0.289464" gradientUnits="userSpaceOnUse">
<stop stop-color="#7E2542" stop-opacity="0.3"/>
<stop offset="0.00416736" stop-color="#802744" stop-opacity="0.305"/>
<stop offset="0.0688705" stop-color="#A03B5C" stop-opacity="0.3832"/>
<stop offset="0.1385" stop-color="#BA4C6F" stop-opacity="0.4673"/>
<stop offset="0.2153" stop-color="#CF597F" stop-opacity="0.5601"/>
<stop offset="0.302" stop-color="#DD638A" stop-opacity="0.6649"/>
<stop offset="0.4069" stop-color="#E56890" stop-opacity="0.7915"/>
<stop offset="0.5794" stop-color="#E86A92"/>
</linearGradient>
<linearGradient id="paint1_linear_2314_4483" x1="0.0252023" y1="-0.302441" x2="45.3008" y2="45.7568" gradientUnits="userSpaceOnUse">
<stop offset="0.0011606" stop-color="#7E2542"/>
<stop offset="0.1122" stop-color="#933352"/>
<stop offset="0.5794" stop-color="#E86A92"/>
</linearGradient>
<linearGradient id="paint2_linear_2314_4483" x1="20.0014" y1="-2.18192" x2="20.0014" y2="45.0784" gradientUnits="userSpaceOnUse">
<stop offset="0.5995" stop-color="#E86A92" stop-opacity="0"/>
<stop offset="0.939" stop-color="#7E2542" stop-opacity="0.8"/>
</linearGradient>
<linearGradient id="paint3_linear_2314_4483" x1="29.5866" y1="19.6481" x2="49.6623" y2="42.3421" gradientUnits="userSpaceOnUse">
<stop stop-color="#7E2542"/>
<stop offset="0.1162" stop-color="#822745" stop-opacity="0.7963"/>
<stop offset="0.2259" stop-color="#8D2F4D" stop-opacity="0.604"/>
<stop offset="0.3329" stop-color="#A03B5C" stop-opacity="0.4163"/>
<stop offset="0.4384" stop-color="#BB4D70" stop-opacity="0.2314"/>
<stop offset="0.5418" stop-color="#DD638A" stop-opacity="0.0500806"/>
<stop offset="0.5704" stop-color="#E86A92" stop-opacity="0"/>
</linearGradient>
<linearGradient id="paint4_linear_2314_4483" x1="39.408" y1="-2.18213" x2="39.408" y2="45.0785" gradientUnits="userSpaceOnUse">
<stop offset="0.5995" stop-color="#E86A92" stop-opacity="0.1"/>
<stop offset="0.939" stop-color="#7E2542" stop-opacity="0.8"/>
</linearGradient>
<linearGradient id="paint5_linear_2314_4483" x1="20.0014" y1="-2.18192" x2="20.0014" y2="45.0784" gradientUnits="userSpaceOnUse">
<stop offset="0.5995" stop-color="#E86A92" stop-opacity="0"/>
<stop offset="0.939" stop-color="#7E2542" stop-opacity="0.8"/>
</linearGradient>
<linearGradient id="paint6_linear_2314_4483" x1="7.65178" y1="8.37999" x2="60.0283" y2="54.1637" gradientUnits="userSpaceOnUse">
<stop stop-color="#7E2542"/>
<stop offset="0.1162" stop-color="#822745" stop-opacity="0.7963"/>
<stop offset="0.2259" stop-color="#8D2F4D" stop-opacity="0.604"/>
<stop offset="0.3329" stop-color="#A03B5C" stop-opacity="0.4163"/>
<stop offset="0.4384" stop-color="#BB4D70" stop-opacity="0.2314"/>
<stop offset="0.5418" stop-color="#DD638A" stop-opacity="0.0500806"/>
<stop offset="0.5704" stop-color="#E86A92" stop-opacity="0"/>
</linearGradient>
<linearGradient id="paint7_linear_2314_4483" x1="23.3094" y1="-2.18193" x2="23.3094" y2="45.0784" gradientUnits="userSpaceOnUse">
<stop offset="0.5995" stop-color="#E86A92" stop-opacity="0"/>
<stop offset="0.939" stop-color="#7E2542" stop-opacity="0.8"/>
</linearGradient>
<linearGradient id="paint8_linear_2314_4483" x1="10.4513" y1="23.8149" x2="39.2645" y2="51.1631" gradientUnits="userSpaceOnUse">
<stop stop-color="#7E2542"/>
<stop offset="0.1162" stop-color="#822745" stop-opacity="0.7963"/>
<stop offset="0.2259" stop-color="#8D2F4D" stop-opacity="0.604"/>
<stop offset="0.3329" stop-color="#A03B5C" stop-opacity="0.4163"/>
<stop offset="0.4384" stop-color="#BB4D70" stop-opacity="0.2314"/>
<stop offset="0.5418" stop-color="#DD638A" stop-opacity="0.0500806"/>
<stop offset="0.5704" stop-color="#E86A92" stop-opacity="0"/>
</linearGradient>
<linearGradient id="paint9_linear_2314_4483" x1="20.9453" y1="-2.18193" x2="20.9453" y2="45.0784" gradientUnits="userSpaceOnUse">
<stop offset="0.5995" stop-color="#E86A92" stop-opacity="0"/>
<stop offset="0.939" stop-color="#7E2542" stop-opacity="0.8"/>
</linearGradient>
<linearGradient id="paint10_linear_2314_4483" x1="2.16562" y1="14.6562" x2="54.5419" y2="60.4399" gradientUnits="userSpaceOnUse">
<stop stop-color="#7E2542"/>
<stop offset="0.1162" stop-color="#822745" stop-opacity="0.7963"/>
<stop offset="0.2259" stop-color="#8D2F4D" stop-opacity="0.604"/>
<stop offset="0.3329" stop-color="#A03B5C" stop-opacity="0.4163"/>
<stop offset="0.4384" stop-color="#BB4D70" stop-opacity="0.2314"/>
<stop offset="0.5418" stop-color="#DD638A" stop-opacity="0.0500806"/>
<stop offset="0.5704" stop-color="#E86A92" stop-opacity="0"/>
</linearGradient>
<linearGradient id="paint11_linear_2314_4483" x1="11.66" y1="22.5415" x2="40.4731" y2="49.8896" gradientUnits="userSpaceOnUse">
<stop stop-color="#7E2542"/>
<stop offset="0.1162" stop-color="#822745" stop-opacity="0.7963"/>
<stop offset="0.2259" stop-color="#8D2F4D" stop-opacity="0.604"/>
<stop offset="0.3329" stop-color="#A03B5C" stop-opacity="0.4163"/>
<stop offset="0.4384" stop-color="#BB4D70" stop-opacity="0.2314"/>
<stop offset="0.5418" stop-color="#DD638A" stop-opacity="0.0500806"/>
<stop offset="0.5704" stop-color="#E86A92" stop-opacity="0"/>
</linearGradient>
<linearGradient id="paint12_linear_2314_4483" x1="17.1869" y1="-2.18178" x2="17.1869" y2="45.0783" gradientUnits="userSpaceOnUse">
<stop offset="0.5995" stop-color="#E86A92" stop-opacity="0"/>
<stop offset="0.939" stop-color="#7E2542" stop-opacity="0.8"/>
</linearGradient>
<linearGradient id="paint13_linear_2314_4483" x1="13.9497" y1="18.9115" x2="58.7566" y2="63.4743" gradientUnits="userSpaceOnUse">
<stop stop-color="#7E2542"/>
<stop offset="0.1162" stop-color="#822745" stop-opacity="0.7963"/>
<stop offset="0.2259" stop-color="#8D2F4D" stop-opacity="0.604"/>
<stop offset="0.3329" stop-color="#A03B5C" stop-opacity="0.4163"/>
<stop offset="0.4384" stop-color="#BB4D70" stop-opacity="0.2314"/>
<stop offset="0.5418" stop-color="#DD638A" stop-opacity="0.0500806"/>
<stop offset="0.5704" stop-color="#E86A92" stop-opacity="0"/>
</linearGradient>
<linearGradient id="paint14_linear_2314_4483" x1="6.72744" y1="9.43744" x2="59.104" y2="55.2211" gradientUnits="userSpaceOnUse">
<stop stop-color="#7E2542"/>
<stop offset="0.1162" stop-color="#822745" stop-opacity="0.7963"/>
<stop offset="0.2259" stop-color="#8D2F4D" stop-opacity="0.604"/>
<stop offset="0.3329" stop-color="#A03B5C" stop-opacity="0.4163"/>
<stop offset="0.4384" stop-color="#BB4D70" stop-opacity="0.2314"/>
<stop offset="0.5418" stop-color="#DD638A" stop-opacity="0.0500806"/>
<stop offset="0.5704" stop-color="#E86A92" stop-opacity="0"/>
</linearGradient>
<linearGradient id="paint15_linear_2314_4483" x1="15.906" y1="16.9444" x2="60.713" y2="61.5072" gradientUnits="userSpaceOnUse">
<stop stop-color="#7E2542"/>
<stop offset="0.1162" stop-color="#822745" stop-opacity="0.7963"/>
<stop offset="0.2259" stop-color="#8D2F4D" stop-opacity="0.604"/>
<stop offset="0.3329" stop-color="#A03B5C" stop-opacity="0.4163"/>
<stop offset="0.4384" stop-color="#BB4D70" stop-opacity="0.2314"/>
<stop offset="0.5418" stop-color="#DD638A" stop-opacity="0.0500806"/>
<stop offset="0.5704" stop-color="#E86A92" stop-opacity="0"/>
</linearGradient>
<linearGradient id="paint16_linear_2314_4483" x1="26.4054" y1="-2.18192" x2="26.4054" y2="45.0784" gradientUnits="userSpaceOnUse">
<stop offset="0.5995" stop-color="#E86A92" stop-opacity="0"/>
<stop offset="0.939" stop-color="#7E2542" stop-opacity="0.8"/>
</linearGradient>
<linearGradient id="paint17_linear_2314_4483" x1="13.2966" y1="20.8172" x2="42.1098" y2="48.1654" gradientUnits="userSpaceOnUse">
<stop stop-color="#7E2542"/>
<stop offset="0.1162" stop-color="#822745" stop-opacity="0.7963"/>
<stop offset="0.2259" stop-color="#8D2F4D" stop-opacity="0.604"/>
<stop offset="0.3329" stop-color="#A03B5C" stop-opacity="0.4163"/>
<stop offset="0.4384" stop-color="#BB4D70" stop-opacity="0.2314"/>
<stop offset="0.5418" stop-color="#DD638A" stop-opacity="0.0500806"/>
<stop offset="0.5704" stop-color="#E86A92" stop-opacity="0"/>
</linearGradient>
<linearGradient id="paint18_linear_2314_4483" x1="12.9867" y1="19.8798" x2="57.7936" y2="64.4426" gradientUnits="userSpaceOnUse">
<stop stop-color="#7E2542"/>
<stop offset="0.1162" stop-color="#822745" stop-opacity="0.7963"/>
<stop offset="0.2259" stop-color="#8D2F4D" stop-opacity="0.604"/>
<stop offset="0.3329" stop-color="#A03B5C" stop-opacity="0.4163"/>
<stop offset="0.4384" stop-color="#BB4D70" stop-opacity="0.2314"/>
<stop offset="0.5418" stop-color="#DD638A" stop-opacity="0.0500806"/>
<stop offset="0.5704" stop-color="#E86A92" stop-opacity="0"/>
</linearGradient>
<linearGradient id="paint19_linear_2314_4483" x1="26.4222" y1="-2.18193" x2="26.4222" y2="45.0784" gradientUnits="userSpaceOnUse">
<stop offset="0.5995" stop-color="#E86A92" stop-opacity="0"/>
<stop offset="0.939" stop-color="#7E2542" stop-opacity="0.8"/>
</linearGradient>
<linearGradient id="paint20_linear_2314_4483" x1="2.90524" y1="13.8082" x2="55.2875" y2="59.5912" gradientUnits="userSpaceOnUse">
<stop stop-color="#7E2542"/>
<stop offset="0.1162" stop-color="#822745" stop-opacity="0.7963"/>
<stop offset="0.2259" stop-color="#8D2F4D" stop-opacity="0.604"/>
<stop offset="0.3329" stop-color="#A03B5C" stop-opacity="0.4163"/>
<stop offset="0.4384" stop-color="#BB4D70" stop-opacity="0.2314"/>
<stop offset="0.5418" stop-color="#DD638A" stop-opacity="0.0500806"/>
<stop offset="0.5704" stop-color="#E86A92" stop-opacity="0"/>
</linearGradient>
<linearGradient id="paint21_linear_2314_4483" x1="12.4722" y1="21.685" x2="41.2889" y2="49.033" gradientUnits="userSpaceOnUse">
<stop stop-color="#7E2542"/>
<stop offset="0.1162" stop-color="#822745" stop-opacity="0.7963"/>
<stop offset="0.2259" stop-color="#8D2F4D" stop-opacity="0.604"/>
<stop offset="0.3329" stop-color="#A03B5C" stop-opacity="0.4163"/>
<stop offset="0.4384" stop-color="#BB4D70" stop-opacity="0.2314"/>
<stop offset="0.5418" stop-color="#DD638A" stop-opacity="0.0500806"/>
<stop offset="0.5704" stop-color="#E86A92" stop-opacity="0"/>
</linearGradient>
<linearGradient id="paint22_linear_2314_4483" x1="11.9751" y1="20.896" x2="56.7877" y2="65.4588" gradientUnits="userSpaceOnUse">
<stop stop-color="#7E2542"/>
<stop offset="0.1162" stop-color="#822745" stop-opacity="0.7963"/>
<stop offset="0.2259" stop-color="#8D2F4D" stop-opacity="0.604"/>
<stop offset="0.3329" stop-color="#A03B5C" stop-opacity="0.4163"/>
<stop offset="0.4384" stop-color="#BB4D70" stop-opacity="0.2314"/>
<stop offset="0.5418" stop-color="#DD638A" stop-opacity="0.0500806"/>
<stop offset="0.5704" stop-color="#E86A92" stop-opacity="0"/>
</linearGradient>
<linearGradient id="paint23_linear_2314_4483" x1="18.9529" y1="-2.18571" x2="18.9529" y2="45.0805" gradientUnits="userSpaceOnUse">
<stop offset="0.5995" stop-color="#E86A92" stop-opacity="0"/>
<stop offset="0.939" stop-color="#7E2542" stop-opacity="0.8"/>
</linearGradient>
<linearGradient id="paint24_linear_2314_4483" x1="27.8932" y1="32.6929" x2="47.1428" y2="54.3869" gradientUnits="userSpaceOnUse">
<stop offset="0.0610356" stop-color="#7E2542" stop-opacity="0.8"/>
<stop offset="0.4005" stop-color="#E86A92" stop-opacity="0"/>
</linearGradient>
</defs>
</svg>
