<svg width="40" height="40" viewBox="0 0 40 40" fill="none" xmlns="http://www.w3.org/2000/svg">
<g clip-path="url(#clip0_2049_4883)">
<path d="M26.5916 20.338L22.2535 16.0563L20.8451 8.50704L27.5493 8.56338L27.7746 8.84507V4.50704L39.8873 16.507V4.78873C39.8873 2.14084 37.7465 0 35.0986 0H4.78873C2.14085 0 0 2.14084 0 4.78873V35.0422C0 37.6901 2.14085 39.831 4.78873 39.831H30.7042L30.0845 37.8591L12.1127 20.3944H17.1831L36.4507 39.662C37.6901 39.3239 38.7606 38.4789 39.3803 37.2958L21.2394 19.5493L26.5916 20.338Z" fill="url(#paint0_linear_2049_4883)"/>
<path d="M39.9437 33.4648L26.5916 20.338L21.2394 19.5493L39.3803 37.3521C39.7183 36.6761 39.9437 35.8873 39.9437 35.0986V33.4648Z" fill="url(#paint1_linear_2049_4883)"/>
<path d="M39.9437 33.4648L26.5916 20.338L21.2394 19.5493L39.3803 37.3521C39.7183 36.6761 39.9437 35.8873 39.9437 35.0986V33.4648Z" fill="url(#paint2_linear_2049_4883)"/>
<path d="M12.1127 20.3943L30.0845 37.9155L30.7042 39.8873H35.1549C35.6056 39.8873 36.0563 39.831 36.4507 39.7183L17.1831 20.3943H12.1127Z" fill="url(#paint3_linear_2049_4883)"/>
<path d="M12.1127 20.3943L30.0845 37.9155L30.7042 39.8873H35.1549C35.6056 39.8873 36.0563 39.831 36.4507 39.7183L17.1831 20.3943H12.1127Z" fill="url(#paint4_linear_2049_4883)"/>
<path d="M27.831 8.84505L39.9437 20.9577V16.507L27.831 4.50702V8.84505Z" fill="url(#paint5_linear_2049_4883)"/>
<path d="M27.831 8.84505L39.9437 20.9577V16.507L27.831 4.50702V8.84505Z" fill="url(#paint6_linear_2049_4883)"/>
<path d="M27.7746 15.4366L39.9437 27.4929V20.9577L27.831 8.84505L27.5493 8.56336L20.8451 8.50702L22.2535 16L26.5915 20.338L26.9859 20.3943L27.7746 15.4366Z" fill="url(#paint7_linear_2049_4883)"/>
<path d="M27.7746 15.4366L39.9437 27.4929V20.9577L27.831 8.84505L27.5493 8.56336L20.8451 8.50702L22.2535 16L26.5915 20.338L26.9859 20.3943L27.7746 15.4366Z" fill="url(#paint8_linear_2049_4883)"/>
<path d="M26.9859 20.3944L26.5916 20.338L39.9437 33.4648V33.3521L26.9859 20.3944Z" fill="url(#paint9_linear_2049_4883)"/>
<path d="M26.9859 20.3944L26.5916 20.338L39.9437 33.4648V33.3521L26.9859 20.3944Z" fill="url(#paint10_linear_2049_4883)"/>
<path d="M26.9859 20.3944L26.5916 20.338L39.9437 33.4648V33.3521L26.9859 20.3944Z" fill="url(#paint11_linear_2049_4883)"/>
<path d="M26.9859 20.3944L39.9436 33.2958V27.493L27.7746 15.4366L26.9859 20.3944Z" fill="url(#paint12_linear_2049_4883)"/>
<path d="M26.9859 20.3944L39.9436 33.2958V27.493L27.7746 15.4366L26.9859 20.3944Z" fill="url(#paint13_linear_2049_4883)"/>
<path d="M26.9859 20.3944L39.9436 33.2958V27.493L27.7746 15.4366L26.9859 20.3944Z" fill="url(#paint14_linear_2049_4883)"/>
<path d="M39.9436 33.3521V33.2958L26.9859 20.3943L39.9436 33.3521Z" fill="url(#paint15_linear_2049_4883)"/>
<path d="M39.9436 33.3521V33.2958L26.9859 20.3943L39.9436 33.3521Z" fill="url(#paint16_linear_2049_4883)"/>
<path d="M39.9436 33.3521V33.2958L26.9859 20.3943L39.9436 33.3521Z" fill="url(#paint17_linear_2049_4883)"/>
<path d="M39.9436 33.3521V33.2958L26.9859 20.3943L39.9436 33.3521Z" fill="url(#paint18_linear_2049_4883)"/>
<path d="M40.7324 21.7465L39.9437 20.9578L40.7324 21.7465Z" fill="url(#paint19_linear_2049_4883)"/>
<path d="M40.7324 21.7465L39.9437 20.9578L40.7324 21.7465Z" fill="url(#paint20_linear_2049_4883)"/>
<path d="M39.9437 20.9578L27.831 8.84509L39.9437 20.9578Z" fill="url(#paint21_linear_2049_4883)"/>
<path d="M39.9437 20.9578L27.831 8.84509L39.9437 20.9578Z" fill="url(#paint22_linear_2049_4883)"/>
<path d="M39.9437 20.9578L27.831 8.84509L39.9437 20.9578Z" fill="url(#paint23_linear_2049_4883)"/>
<path opacity="0.3" d="M1.29578 33.8028V6.08451C1.29578 3.43662 3.43662 1.29578 6.08451 1.29578H33.9155C36.5634 1.29578 38.7042 3.43662 38.7042 6.08451V33.8028C38.7042 36.4507 36.5634 38.5915 33.9155 38.5915H6.08451C3.43662 38.5915 1.29578 36.4507 1.29578 33.8028Z" fill="url(#paint24_linear_2049_4883)"/>
<path d="M16.7887 34.0282L20.507 32.1127L27.3803 39.831H22.1972L16.7887 34.0282Z" fill="url(#paint25_linear_2049_4883)"/>
<path d="M20.338 18.5915L39.3239 37.4084C39.7183 36.7324 39.9437 35.9437 39.9437 35.0986V30.3099V23.831V4.95775C39.9437 2.19718 37.6901 0 34.9859 0H4.95775C2.25352 0 0 2.19718 0 4.95775V34.8732C0 37.6338 2.25352 39.831 4.95775 39.831H27.3803L20.507 32.1127L20.338 18.5915Z" fill="url(#paint26_linear_2049_4883)"/>
<path d="M35.1549 39.831C36.9577 39.831 38.4789 38.8169 39.3239 37.4085L20.338 18.5916L20.507 32.1127L27.3803 39.831H32.6197H35.1549Z" fill="url(#paint27_linear_2049_4883)"/>
<path d="M35.1549 39.831C36.9577 39.831 38.4789 38.8169 39.3239 37.4085L20.338 18.5916L20.507 32.1127L27.3803 39.831H32.6197H35.1549Z" fill="url(#paint28_linear_2049_4883)"/>
<path d="M22.1408 20.3944H27.0422L27.831 15.4366H22.1972V12.7324C22.1972 10.6479 22.8732 8.84506 24.7887 8.84506H27.8873V4.50703C27.3239 4.45069 26.1972 4.28168 24 4.28168C19.4366 4.28168 16.7887 6.70421 16.7887 12.1127V15.4366H12.1127V20.3944H16.7887V34.0282C17.6901 34.1408 18.6479 34.2535 19.6056 34.2535C20.4507 34.2535 21.2958 34.1972 22.1408 34.0845V20.3944Z" fill="white"/>
</g>
<defs>
<linearGradient id="paint0_linear_2049_4883" x1="21.5101" y1="16.5399" x2="-0.18495" y2="63.824" gradientUnits="userSpaceOnUse">
<stop offset="0.4206" stop-color="#EA7317"/>
<stop offset="1" stop-color="#7E2542"/>
</linearGradient>
<linearGradient id="paint1_linear_2049_4883" x1="33.2763" y1="21.9386" x2="11.5813" y2="69.2227" gradientUnits="userSpaceOnUse">
<stop offset="0.4206" stop-color="#EA7317"/>
<stop offset="1" stop-color="#7E2542"/>
</linearGradient>
<linearGradient id="paint2_linear_2049_4883" x1="23.8045" y1="13.3397" x2="47.6646" y2="59.7262" gradientUnits="userSpaceOnUse">
<stop stop-color="#7E2542"/>
<stop offset="0.5794" stop-color="#EA7317" stop-opacity="0"/>
</linearGradient>
<linearGradient id="paint3_linear_2049_4883" x1="28.8976" y1="19.9294" x2="7.20254" y2="67.2136" gradientUnits="userSpaceOnUse">
<stop offset="0.4206" stop-color="#EA7317"/>
<stop offset="1" stop-color="#7E2542"/>
</linearGradient>
<linearGradient id="paint4_linear_2049_4883" x1="15.8741" y1="13.7183" x2="39.0181" y2="58.7126" gradientUnits="userSpaceOnUse">
<stop stop-color="#7E2542"/>
<stop offset="0.5794" stop-color="#EA7317" stop-opacity="0"/>
</linearGradient>
<linearGradient id="paint5_linear_2049_4883" x1="30.2872" y1="20.567" x2="8.59207" y2="67.8511" gradientUnits="userSpaceOnUse">
<stop offset="0.4206" stop-color="#EA7317"/>
<stop offset="1" stop-color="#7E2542"/>
</linearGradient>
<linearGradient id="paint6_linear_2049_4883" x1="27.1551" y1="-0.396924" x2="52.8885" y2="49.6312" gradientUnits="userSpaceOnUse">
<stop stop-color="#7E2542"/>
<stop offset="0.5794" stop-color="#EA7317" stop-opacity="0"/>
</linearGradient>
<linearGradient id="paint7_linear_2049_4883" x1="29.4002" y1="20.16" x2="7.70512" y2="67.4442" gradientUnits="userSpaceOnUse">
<stop offset="0.4206" stop-color="#EA7317"/>
<stop offset="1" stop-color="#7E2542"/>
</linearGradient>
<linearGradient id="paint8_linear_2049_4883" x1="45.2523" y1="33.3795" x2="20.6761" y2="7.5704" gradientUnits="userSpaceOnUse">
<stop offset="0.0976415" stop-color="#EA7317" stop-opacity="0"/>
<stop offset="1" stop-color="#7E2542"/>
</linearGradient>
<linearGradient id="paint9_linear_2049_4883" x1="35.148" y1="22.7973" x2="13.453" y2="70.0814" gradientUnits="userSpaceOnUse">
<stop offset="0.4206" stop-color="#EA7317"/>
<stop offset="1" stop-color="#7E2542"/>
</linearGradient>
<linearGradient id="paint10_linear_2049_4883" x1="25.79" y1="12.3184" x2="49.6502" y2="58.7049" gradientUnits="userSpaceOnUse">
<stop stop-color="#7E2542"/>
<stop offset="0.5794" stop-color="#EA7317" stop-opacity="0"/>
</linearGradient>
<linearGradient id="paint11_linear_2049_4883" x1="42.2256" y1="36.2616" x2="17.6495" y2="10.4525" gradientUnits="userSpaceOnUse">
<stop offset="0.0976415" stop-color="#EA7317" stop-opacity="0"/>
<stop offset="1" stop-color="#7E2542"/>
</linearGradient>
<linearGradient id="paint12_linear_2049_4883" x1="34.6742" y1="22.5799" x2="12.9791" y2="69.8641" gradientUnits="userSpaceOnUse">
<stop offset="0.4206" stop-color="#EA7317"/>
<stop offset="1" stop-color="#7E2542"/>
</linearGradient>
<linearGradient id="paint13_linear_2049_4883" x1="26.9475" y1="11.2676" x2="49.4281" y2="54.9721" gradientUnits="userSpaceOnUse">
<stop stop-color="#7E2542"/>
<stop offset="0.5794" stop-color="#EA7317" stop-opacity="0"/>
</linearGradient>
<linearGradient id="paint14_linear_2049_4883" x1="43.7838" y1="34.7779" x2="19.2076" y2="8.96882" gradientUnits="userSpaceOnUse">
<stop offset="0.0976415" stop-color="#EA7317" stop-opacity="0"/>
<stop offset="1" stop-color="#7E2542"/>
</linearGradient>
<linearGradient id="paint15_linear_2049_4883" x1="35.309" y1="22.8712" x2="13.614" y2="70.1553" gradientUnits="userSpaceOnUse">
<stop offset="0.4206" stop-color="#EA7317"/>
<stop offset="1" stop-color="#7E2542"/>
</linearGradient>
<linearGradient id="paint16_linear_2049_4883" x1="25.951" y1="12.2355" x2="49.8111" y2="58.6221" gradientUnits="userSpaceOnUse">
<stop stop-color="#7E2542"/>
<stop offset="0.5794" stop-color="#EA7317" stop-opacity="0"/>
</linearGradient>
<linearGradient id="paint17_linear_2049_4883" x1="25.7658" y1="11.8755" x2="48.2463" y2="55.5799" gradientUnits="userSpaceOnUse">
<stop stop-color="#7E2542"/>
<stop offset="0.5794" stop-color="#EA7317" stop-opacity="0"/>
</linearGradient>
<linearGradient id="paint18_linear_2049_4883" x1="42.3328" y1="36.1595" x2="17.7567" y2="10.3504" gradientUnits="userSpaceOnUse">
<stop offset="0.0976415" stop-color="#EA7317" stop-opacity="0"/>
<stop offset="1" stop-color="#7E2542"/>
</linearGradient>
<linearGradient id="paint19_linear_2049_4883" x1="28.7072" y1="-1.19536" x2="54.4406" y2="48.833" gradientUnits="userSpaceOnUse">
<stop stop-color="#7E2542"/>
<stop offset="0.5794" stop-color="#EA7317" stop-opacity="0"/>
</linearGradient>
<linearGradient id="paint20_linear_2049_4883" x1="48.6599" y1="30.1349" x2="24.0837" y2="4.32555" gradientUnits="userSpaceOnUse">
<stop offset="0.0976415" stop-color="#EA7317" stop-opacity="0"/>
<stop offset="1" stop-color="#7E2542"/>
</linearGradient>
<linearGradient id="paint21_linear_2049_4883" x1="31.1054" y1="20.9424" x2="9.41025" y2="68.2266" gradientUnits="userSpaceOnUse">
<stop offset="0.4206" stop-color="#EA7317"/>
<stop offset="1" stop-color="#7E2542"/>
</linearGradient>
<linearGradient id="paint22_linear_2049_4883" x1="26.2437" y1="0.0719079" x2="51.977" y2="50.1001" gradientUnits="userSpaceOnUse">
<stop stop-color="#7E2542"/>
<stop offset="0.5794" stop-color="#EA7317" stop-opacity="0"/>
</linearGradient>
<linearGradient id="paint23_linear_2049_4883" x1="48.51" y1="30.2775" x2="23.9337" y2="4.46843" gradientUnits="userSpaceOnUse">
<stop offset="0.0976415" stop-color="#EA7317" stop-opacity="0"/>
<stop offset="1" stop-color="#7E2542"/>
</linearGradient>
<linearGradient id="paint24_linear_2049_4883" x1="-0.285013" y1="-5.41301" x2="41.1971" y2="46.501" gradientUnits="userSpaceOnUse">
<stop stop-color="#7E2542" stop-opacity="0.3"/>
<stop offset="0.5794" stop-color="#EA7317"/>
</linearGradient>
<linearGradient id="paint25_linear_2049_4883" x1="24.091" y1="42.7821" x2="20.1966" y2="31.4949" gradientUnits="userSpaceOnUse">
<stop offset="0.4206" stop-color="#EA7317" stop-opacity="0"/>
<stop offset="1" stop-color="#7E2542"/>
</linearGradient>
<linearGradient id="paint26_linear_2049_4883" x1="19.9623" y1="-2.17521" x2="19.9623" y2="44.939" gradientUnits="userSpaceOnUse">
<stop offset="0.5995" stop-color="#EA7317" stop-opacity="0"/>
<stop offset="0.9072" stop-color="#7E2542" stop-opacity="0.8"/>
</linearGradient>
<linearGradient id="paint27_linear_2049_4883" x1="37.7042" y1="43.1961" x2="16.6618" y2="21.0981" gradientUnits="userSpaceOnUse">
<stop offset="0.0976415" stop-color="#EA7317" stop-opacity="0"/>
<stop offset="1" stop-color="#7E2542"/>
</linearGradient>
<linearGradient id="paint28_linear_2049_4883" x1="29.8273" y1="-2.17521" x2="29.8273" y2="44.939" gradientUnits="userSpaceOnUse">
<stop offset="0.5995" stop-color="#EA7317" stop-opacity="0"/>
<stop offset="0.9072" stop-color="#7E2542" stop-opacity="0.8"/>
</linearGradient>
<clipPath id="clip0_2049_4883">
<rect width="40" height="40" fill="white"/>
</clipPath>
</defs>
</svg>
