<svg width="40" height="40" viewBox="0 0 40 40" fill="none" xmlns="http://www.w3.org/2000/svg">
<g clip-path="url(#clip0_2050_4708)">
<path d="M35.2 40H4.8C2.14815 40 0 37.8519 0 35.2V4.83705C0 2.1852 2.14815 0.0370483 4.8 0.0370483H35.2C37.8519 0.0370483 40 2.1852 40 4.83705V35.2C40 37.8519 37.8519 40 35.2 40Z" fill="url(#paint0_linear_2050_4708)"/>
<path opacity="0.5" d="M1.27408 34.0519V5.9852C1.27408 3.40001 3.37037 1.30371 5.95556 1.30371H34.0518C36.637 1.30371 38.7333 3.40001 38.7333 5.9852V34.0519C38.7333 36.6371 36.637 38.7334 34.0518 38.7334H5.94815C3.36297 38.7334 1.27408 36.6371 1.27408 34.0519Z" fill="url(#paint1_linear_2050_4708)"/>
<path d="M28.837 27.9926L39.0074 38.1185C39.6296 37.3111 40 36.2963 40 35.2V32.6L32.8444 25.5037L28.837 27.9926Z" fill="url(#paint2_linear_2050_4708)"/>
<path d="M16.3482 27.0445L14.1852 24.7926L8.02963 30.3408L17.6519 40H29.2741L16.3482 27.0445Z" fill="url(#paint3_linear_2050_4708)"/>
<path d="M28.7852 27.8296L19.9556 19.0444L15.7037 26.4074L16.1704 26.8741L29.2741 40L35.1407 39.837C35.3037 39.837 35.4667 39.8296 35.6222 39.8148L25.7778 29.7037L28.7852 27.8296Z" fill="url(#paint4_linear_2050_4708)"/>
<path d="M25.8297 29.8666L35.6815 39.9777C37.0371 39.8444 38.2222 39.1407 39.0074 38.1185L28.8371 27.9926L25.8297 29.8666Z" fill="url(#paint5_linear_2050_4708)"/>
<path d="M25.8297 29.8666L35.6815 39.9777C37.0371 39.8444 38.2222 39.1407 39.0074 38.1185L28.8371 27.9926L25.8297 29.8666Z" fill="url(#paint6_linear_2050_4708)"/>
<path d="M29.2741 40L16.237 27.0444L29.2741 40Z" fill="url(#paint7_linear_2050_4708)"/>
<path d="M29.2741 40L16.237 27.0444L29.2741 40Z" fill="url(#paint8_linear_2050_4708)"/>
<path d="M29.2741 40L16.3481 27.0444L29.2741 40Z" fill="url(#paint9_linear_2050_4708)"/>
<path opacity="0.6" d="M6.80001 24.7482L15.8667 9.04448C17.0444 7.00003 19.6593 6.30374 21.7037 7.48152C23.7481 8.65929 24.4444 11.2741 23.2667 13.3186L14.2 29.0223C13.0222 31.0667 10.4074 31.763 8.36297 30.5852C6.31853 29.4074 5.61482 26.7926 6.80001 24.7482Z" fill="white"/>
<path d="M25.0074 28.6815L15.9407 12.9778C14.763 10.9333 15.4593 8.31854 17.5037 7.14076C19.5482 5.96298 22.163 6.65928 23.3407 8.70372L32.4074 24.4074C33.5852 26.4519 32.8889 29.0667 30.8444 30.2445C28.8 31.4296 26.1926 30.7259 25.0074 28.6815Z" fill="white"/>
<path d="M10.4148 31.4148C7.9926 31.4148 6.02963 29.4519 6.02963 27.0297C6.02963 24.6074 7.9926 22.6445 10.4148 22.6445C12.837 22.6445 14.8 24.6074 14.8 27.0297C14.8 29.4519 12.837 31.4148 10.4148 31.4148Z" fill="white"/>
<path d="M4.65185 39.963C2.08148 39.963 0 37.8815 0 35.3185V4.8C0 2.14815 2.14815 0 4.8 0H35.1185C37.8148 0 40 2.18519 40 4.87407V23.8889V32.7185V35.2C40 37.8444 37.8444 39.9852 35.2 39.9704C34.2074 39.963 33.2889 39.963 32.7111 39.963H4.65185Z" fill="url(#paint10_linear_2050_4708)"/>
</g>
<defs>
<linearGradient id="paint0_linear_2050_4708" x1="21.557" y1="16.6258" x2="-0.193644" y2="64.031" gradientUnits="userSpaceOnUse">
<stop offset="0.4206" stop-color="#EA7317"/>
<stop offset="1" stop-color="#7E2542"/>
</linearGradient>
<linearGradient id="paint1_linear_2050_4708" x1="-0.337493" y1="-5.43394" x2="41.3301" y2="46.7121" gradientUnits="userSpaceOnUse">
<stop stop-color="#7E2542" stop-opacity="0.3"/>
<stop offset="0.0070214" stop-color="#822840" stop-opacity="0.3085"/>
<stop offset="0.0713146" stop-color="#A23F34" stop-opacity="0.3862"/>
<stop offset="0.1412" stop-color="#BC5229" stop-opacity="0.4705"/>
<stop offset="0.2175" stop-color="#D16121" stop-opacity="0.5628"/>
<stop offset="0.3037" stop-color="#DF6B1B" stop-opacity="0.6669"/>
<stop offset="0.4079" stop-color="#E77118" stop-opacity="0.7928"/>
<stop offset="0.5794" stop-color="#EA7317"/>
</linearGradient>
<linearGradient id="paint2_linear_2050_4708" x1="30.4422" y1="22.5635" x2="50.8802" y2="62.2969" gradientUnits="userSpaceOnUse">
<stop stop-color="#7E2542"/>
<stop offset="0.3161" stop-color="#BB512A" stop-opacity="0.4546"/>
<stop offset="0.5794" stop-color="#EA7317" stop-opacity="0"/>
</linearGradient>
<linearGradient id="paint3_linear_2050_4708" x1="11.0249" y1="20.3444" x2="40.7429" y2="78.1191" gradientUnits="userSpaceOnUse">
<stop stop-color="#7E2542"/>
<stop offset="0.1441" stop-color="#943539" stop-opacity="0.8135"/>
<stop offset="0.5704" stop-color="#D26221" stop-opacity="0.2621"/>
<stop offset="0.773" stop-color="#EA7317" stop-opacity="0"/>
</linearGradient>
<linearGradient id="paint4_linear_2050_4708" x1="15.6057" y1="13.5486" x2="53.4863" y2="87.1923" gradientUnits="userSpaceOnUse">
<stop stop-color="#7E2542"/>
<stop offset="0.0854015" stop-color="#8E303C" stop-opacity="0.9036"/>
<stop offset="0.3287" stop-color="#B64D2C" stop-opacity="0.6288"/>
<stop offset="0.5514" stop-color="#D26220" stop-opacity="0.3773"/>
<stop offset="0.7444" stop-color="#E46F19" stop-opacity="0.1595"/>
<stop offset="0.8856" stop-color="#EA7317" stop-opacity="0"/>
</linearGradient>
<linearGradient id="paint5_linear_2050_4708" x1="27.3585" y1="24.1498" x2="47.7964" y2="63.8831" gradientUnits="userSpaceOnUse">
<stop stop-color="#7E2542"/>
<stop offset="0.3161" stop-color="#BB512A" stop-opacity="0.4546"/>
<stop offset="0.5794" stop-color="#EA7317" stop-opacity="0"/>
</linearGradient>
<linearGradient id="paint6_linear_2050_4708" x1="20.4922" y1="10.8011" x2="58.8188" y2="85.3117" gradientUnits="userSpaceOnUse">
<stop stop-color="#7E2542"/>
<stop offset="0.0854015" stop-color="#8E303C" stop-opacity="0.9036"/>
<stop offset="0.3287" stop-color="#B64D2C" stop-opacity="0.6288"/>
<stop offset="0.5514" stop-color="#D26220" stop-opacity="0.3773"/>
<stop offset="0.7444" stop-color="#E46F19" stop-opacity="0.1595"/>
<stop offset="0.8856" stop-color="#EA7317" stop-opacity="0"/>
</linearGradient>
<linearGradient id="paint7_linear_2050_4708" x1="15.445" y1="19.3139" x2="43.83" y2="74.4971" gradientUnits="userSpaceOnUse">
<stop stop-color="#7E2542"/>
<stop offset="0.1441" stop-color="#943539" stop-opacity="0.8135"/>
<stop offset="0.5704" stop-color="#D26221" stop-opacity="0.2621"/>
<stop offset="0.773" stop-color="#EA7317" stop-opacity="0"/>
</linearGradient>
<linearGradient id="paint8_linear_2050_4708" x1="13.0384" y1="14.6353" x2="51.3649" y2="89.1458" gradientUnits="userSpaceOnUse">
<stop stop-color="#7E2542"/>
<stop offset="0.0854015" stop-color="#8E303C" stop-opacity="0.9036"/>
<stop offset="0.3287" stop-color="#B64D2C" stop-opacity="0.6288"/>
<stop offset="0.5514" stop-color="#D26220" stop-opacity="0.3773"/>
<stop offset="0.7444" stop-color="#E46F19" stop-opacity="0.1595"/>
<stop offset="0.8856" stop-color="#EA7317" stop-opacity="0"/>
</linearGradient>
<linearGradient id="paint9_linear_2050_4708" x1="29.0183" y1="19.9961" x2="7.26765" y2="67.4012" gradientUnits="userSpaceOnUse">
<stop offset="0.4206" stop-color="#EA7317"/>
<stop offset="1" stop-color="#7E2542"/>
</linearGradient>
<linearGradient id="paint10_linear_2050_4708" x1="20.0003" y1="-2.18181" x2="20.0003" y2="45.076" gradientUnits="userSpaceOnUse">
<stop offset="0.5995" stop-color="#EA7317" stop-opacity="0"/>
<stop offset="0.939" stop-color="#7E2542" stop-opacity="0.8"/>
</linearGradient>
<clipPath id="clip0_2050_4708">
<rect width="40" height="40" fill="white"/>
</clipPath>
</defs>
</svg>
