<svg width="40" height="40" viewBox="0 0 40 40" fill="none" xmlns="http://www.w3.org/2000/svg">
<path d="M34.958 39.7756H4.7619C2.12885 39.7756 0 37.6437 0 35.007V4.82467C0 2.18793 2.12885 0.0560913 4.7619 0.0560913H34.958C37.591 0.0560913 39.7199 2.18793 39.7199 4.82467V35.007C39.7199 37.6437 37.591 39.7756 34.958 39.7756Z" fill="url(#paint0_linear_2049_4985)"/>
<path opacity="0.5" d="M1.28851 33.7167V6.05893C1.28851 3.42218 3.41736 1.29034 6.05042 1.29034H33.7255C36.3585 1.29034 38.4874 3.42218 38.4874 6.05893V33.7167C38.4874 36.3535 36.3585 38.4853 33.7255 38.4853H6.05042C3.41736 38.4853 1.28851 36.3535 1.28851 33.7167Z" fill="url(#paint1_linear_2049_4985)"/>
<path d="M13.5014 29.3408L20.8964 39.3829L16.2465 13.0154L13.5014 10.0421V29.3408Z" fill="url(#paint2_linear_2049_4985)"/>
<path d="M20.5042 17.7279L24.93 22.1599L28.0112 21.0378L23.6415 16.7742L20.5042 17.7279Z" fill="url(#paint3_linear_2049_4985)"/>
<path d="M29.3557 28.3871L33.1653 32.202L30.3081 29.3408V25.7504L24.6499 25.6943L26.3305 19.2987L22.1289 15.7083L25.2661 12.8471L29.3557 11.3324L39.7199 21.5989V4.76858C39.7199 2.18794 37.535 0 34.8459 0H4.7619C2.12885 0 0 2.13184 0 4.76858V35.1192C0 37.6438 2.07283 39.7195 4.59384 39.7195H20L9.69188 29.3408L12.549 28.3871L23.9216 39.7195H25.7703L15.4062 29.3408L18.2633 28.3871L29.6919 39.7195H30.8683L20.5042 29.3408L29.3557 28.3871Z" fill="url(#paint4_linear_2049_4985)"/>
<path d="M30.3081 25.7504V29.3408L33.1653 32.202L38.7675 37.756C39.3277 36.9706 39.6639 36.0169 39.6639 34.9509V34.1094L30.4202 25.6943L30.3081 25.7504Z" fill="url(#paint5_linear_2049_4985)"/>
<path d="M30.3081 25.7504V29.3408L33.1653 32.202L38.7675 37.756C39.3277 36.9706 39.6639 36.0169 39.6639 34.9509V34.1094L30.4202 25.6943L30.3081 25.7504Z" fill="url(#paint6_linear_2049_4985)"/>
<path d="M34.958 39.7195C36.5266 39.7195 37.9272 38.9902 38.7675 37.8121L33.1653 32.202L29.3557 28.3871L20.5042 29.3408L30.8123 39.7195H32.437C33.0532 39.7195 33.9496 39.7195 34.958 39.7195Z" fill="url(#paint7_linear_2049_4985)"/>
<path d="M34.958 39.7195C36.5266 39.7195 37.9272 38.9902 38.7675 37.8121L33.1653 32.202L29.3557 28.3871L20.5042 29.3408L30.8123 39.7195H32.437C33.0532 39.7195 33.9496 39.7195 34.958 39.7195Z" fill="url(#paint8_linear_2049_4985)"/>
<path d="M38.7675 37.8121L33.1653 32.202L38.7675 37.8121Z" fill="url(#paint9_linear_2049_4985)"/>
<path d="M38.7675 37.8121L33.1653 32.202L38.7675 37.8121Z" fill="url(#paint10_linear_2049_4985)"/>
<path d="M38.7675 37.8121L33.1653 32.202L38.7675 37.8121Z" fill="url(#paint11_linear_2049_4985)"/>
<path d="M9.69187 29.3408L20 39.7195H23.9216L12.549 28.3871L9.69187 29.3408Z" fill="url(#paint12_linear_2049_4985)"/>
<path d="M9.69187 29.3408L20 39.7195H23.9216L12.549 28.3871L9.69187 29.3408Z" fill="url(#paint13_linear_2049_4985)"/>
<path d="M15.4062 29.3408L25.7703 39.7195H29.6919L18.3193 28.3871L15.4062 29.3408Z" fill="url(#paint14_linear_2049_4985)"/>
<path d="M15.4062 29.3408L25.7703 39.7195H29.6919L18.3193 28.3871L15.4062 29.3408Z" fill="url(#paint15_linear_2049_4985)"/>
<path d="M25.2661 12.9032L22.1289 15.7644L26.3305 19.3548L24.6499 25.6942L30.3081 25.7503V25.582L39.7199 34.1655V32.5386V23.7307V21.655L29.3557 11.3885L25.2661 12.9032Z" fill="url(#paint16_linear_2049_4985)"/>
<path d="M25.2661 12.9032L22.1289 15.7644L26.3305 19.3548L24.6499 25.6942L30.3081 25.7503V25.582L39.7199 34.1655V32.5386V23.7307V21.655L29.3557 11.3885L25.2661 12.9032Z" fill="url(#paint17_linear_2049_4985)"/>
<path d="M39.7199 34.1655L40 34.446L39.7199 34.1655Z" fill="url(#paint18_linear_2049_4985)"/>
<path d="M39.7199 34.1655L40 34.446L39.7199 34.1655Z" fill="url(#paint19_linear_2049_4985)"/>
<path d="M30.3081 25.582V25.7503H30.4202L39.7199 34.1655L30.3081 25.582Z" fill="url(#paint20_linear_2049_4985)"/>
<path d="M30.3081 25.582V25.7503H30.4202L39.7199 34.1655L30.3081 25.582Z" fill="url(#paint21_linear_2049_4985)"/>
<path d="M30.3081 25.582V25.7503H30.4202L39.7199 34.1655L30.3081 25.582Z" fill="url(#paint22_linear_2049_4985)"/>
<path d="M18.9916 29.3408L30.9804 40L20.5042 29.3408L28.5714 19.5231L18.9916 10.0421V29.3408Z" fill="url(#paint23_linear_2049_4985)"/>
<path d="M9.69187 29.3408V10.0981H13.5014V16.9986H15.2941V10.0981H19.0476V29.3408H15.2381V20.589H13.4454V29.2847H9.69187V29.3408Z" fill="white"/>
<path d="M20.5602 29.3408V28.4432C20.5602 27.4895 20.7283 26.6479 21.0084 25.8625C21.2885 25.0771 21.6807 24.4039 22.1288 23.7307C22.577 23.0575 23.0812 22.4404 23.5854 21.8233C24.0896 21.2061 24.5378 20.589 24.986 19.9158C25.4342 19.2987 25.8263 18.5694 26.1064 17.8401C26.3865 17.1108 26.5546 16.2132 26.5546 15.3155C26.5546 14.8667 26.4986 14.474 26.3305 14.1374C26.2185 13.8008 25.9384 13.6325 25.4902 13.6325C24.8739 13.6325 24.5378 14.1935 24.5378 15.3716V17.7279H20.5602C20.5602 17.5596 20.5602 17.3913 20.5602 17.1669C20.5602 16.9425 20.5602 16.7742 20.5602 16.5498C20.5602 15.1472 20.7283 13.9691 21.0084 13.0154C21.2885 12.0617 21.7927 11.3324 22.521 10.8275C23.2493 10.3226 24.2577 10.0421 25.6022 10.0421C27.1709 10.0421 28.4034 10.4909 29.2997 11.3885C30.1961 12.2861 30.5882 13.5764 30.5882 15.2033C30.5882 16.3254 30.4202 17.3352 30.14 18.1767C29.8599 19.0182 29.4678 19.8036 29.0196 20.4768C28.5154 21.2061 28.0112 21.8794 27.451 22.5526C27.0588 23.0575 26.6667 23.5624 26.2745 24.0673C25.8823 24.5722 25.5462 25.1332 25.2661 25.6942H30.4762V29.3408H20.5602V29.3408Z" fill="white"/>
<defs>
<linearGradient id="paint0_linear_2049_4985" x1="21.3955" y1="16.5243" x2="-0.242413" y2="63.6176" gradientUnits="userSpaceOnUse">
<stop offset="0.4206" stop-color="#EA7317"/>
<stop offset="1" stop-color="#7E2542"/>
</linearGradient>
<linearGradient id="paint1_linear_2049_4985" x1="-0.294401" y1="-5.34993" x2="41.0484" y2="46.3173" gradientUnits="userSpaceOnUse">
<stop stop-color="#7E2542" stop-opacity="0.3"/>
<stop offset="0.0070214" stop-color="#822840" stop-opacity="0.3085"/>
<stop offset="0.0713146" stop-color="#A23F34" stop-opacity="0.3862"/>
<stop offset="0.1412" stop-color="#BC5229" stop-opacity="0.4705"/>
<stop offset="0.2175" stop-color="#D16121" stop-opacity="0.5628"/>
<stop offset="0.3037" stop-color="#DF6B1B" stop-opacity="0.6669"/>
<stop offset="0.4079" stop-color="#E77118" stop-opacity="0.7928"/>
<stop offset="0.5794" stop-color="#EA7317"/>
</linearGradient>
<linearGradient id="paint2_linear_2049_4985" x1="6.94739" y1="5.72598" x2="44.596" y2="78.8161" gradientUnits="userSpaceOnUse">
<stop stop-color="#7E2542"/>
<stop offset="0.5794" stop-color="#EA7317" stop-opacity="0"/>
</linearGradient>
<linearGradient id="paint3_linear_2049_4985" x1="22.1361" y1="15.2101" x2="30.3253" y2="31.1084" gradientUnits="userSpaceOnUse">
<stop stop-color="#7E2542"/>
<stop offset="0.5794" stop-color="#EA7317" stop-opacity="0"/>
</linearGradient>
<linearGradient id="paint4_linear_2049_4985" x1="19.8505" y1="-2.16853" x2="19.8505" y2="44.8009" gradientUnits="userSpaceOnUse">
<stop offset="0.5995" stop-color="#EA7317" stop-opacity="0"/>
<stop offset="0.939" stop-color="#7E2542" stop-opacity="0.8"/>
</linearGradient>
<linearGradient id="paint5_linear_2049_4985" x1="35.013" y1="-2.1685" x2="35.013" y2="44.8009" gradientUnits="userSpaceOnUse">
<stop offset="0.5995" stop-color="#EA7317" stop-opacity="0"/>
<stop offset="0.939" stop-color="#7E2542" stop-opacity="0.8"/>
</linearGradient>
<linearGradient id="paint6_linear_2049_4985" x1="29.4645" y1="20.9486" x2="54.4661" y2="69.4862" gradientUnits="userSpaceOnUse">
<stop stop-color="#7E2542"/>
<stop offset="0.5794" stop-color="#EA7317" stop-opacity="0"/>
</linearGradient>
<linearGradient id="paint7_linear_2049_4985" x1="29.644" y1="-2.16855" x2="29.644" y2="44.8009" gradientUnits="userSpaceOnUse">
<stop offset="0.5995" stop-color="#EA7317" stop-opacity="0"/>
<stop offset="0.939" stop-color="#7E2542" stop-opacity="0.8"/>
</linearGradient>
<linearGradient id="paint8_linear_2049_4985" x1="23.9678" y1="22.5279" x2="48.6643" y2="70.473" gradientUnits="userSpaceOnUse">
<stop stop-color="#7E2542"/>
<stop offset="0.5794" stop-color="#EA7317" stop-opacity="0"/>
</linearGradient>
<linearGradient id="paint9_linear_2049_4985" x1="35.9793" y1="-2.16853" x2="35.9793" y2="44.8009" gradientUnits="userSpaceOnUse">
<stop offset="0.5995" stop-color="#EA7317" stop-opacity="0"/>
<stop offset="0.939" stop-color="#7E2542" stop-opacity="0.8"/>
</linearGradient>
<linearGradient id="paint10_linear_2049_4985" x1="28.9137" y1="21.2323" x2="53.9154" y2="69.7699" gradientUnits="userSpaceOnUse">
<stop stop-color="#7E2542"/>
<stop offset="0.5794" stop-color="#EA7317" stop-opacity="0"/>
</linearGradient>
<linearGradient id="paint11_linear_2049_4985" x1="28.4052" y1="20.2422" x2="53.1017" y2="68.1874" gradientUnits="userSpaceOnUse">
<stop stop-color="#7E2542"/>
<stop offset="0.5794" stop-color="#EA7317" stop-opacity="0"/>
</linearGradient>
<linearGradient id="paint12_linear_2049_4985" x1="16.8154" y1="-2.16855" x2="16.8154" y2="44.8009" gradientUnits="userSpaceOnUse">
<stop offset="0.5995" stop-color="#EA7317" stop-opacity="0"/>
<stop offset="0.939" stop-color="#7E2542" stop-opacity="0.8"/>
</linearGradient>
<linearGradient id="paint13_linear_2049_4985" x1="11.4566" y1="24.097" x2="32.67" y2="65.2803" gradientUnits="userSpaceOnUse">
<stop stop-color="#7E2542"/>
<stop offset="0.5794" stop-color="#EA7317" stop-opacity="0"/>
</linearGradient>
<linearGradient id="paint14_linear_2049_4985" x1="22.5578" y1="-2.16855" x2="22.5578" y2="44.8009" gradientUnits="userSpaceOnUse">
<stop offset="0.5995" stop-color="#EA7317" stop-opacity="0"/>
<stop offset="0.939" stop-color="#7E2542" stop-opacity="0.8"/>
</linearGradient>
<linearGradient id="paint15_linear_2049_4985" x1="17.1991" y1="24.097" x2="38.4125" y2="65.2803" gradientUnits="userSpaceOnUse">
<stop stop-color="#7E2542"/>
<stop offset="0.5794" stop-color="#EA7317" stop-opacity="0"/>
</linearGradient>
<linearGradient id="paint16_linear_2049_4985" x1="30.9131" y1="-2.16854" x2="30.9131" y2="44.8009" gradientUnits="userSpaceOnUse">
<stop offset="0.5995" stop-color="#EA7317" stop-opacity="0"/>
<stop offset="0.939" stop-color="#7E2542" stop-opacity="0.8"/>
</linearGradient>
<linearGradient id="paint17_linear_2049_4985" x1="23.6067" y1="7.01127" x2="56.6464" y2="71.1538" gradientUnits="userSpaceOnUse">
<stop stop-color="#7E2542"/>
<stop offset="0.5794" stop-color="#EA7317" stop-opacity="0"/>
</linearGradient>
<linearGradient id="paint18_linear_2049_4985" x1="32.2524" y1="19.5125" x2="57.2541" y2="68.0503" gradientUnits="userSpaceOnUse">
<stop stop-color="#7E2542"/>
<stop offset="0.5794" stop-color="#EA7317" stop-opacity="0"/>
</linearGradient>
<linearGradient id="paint19_linear_2049_4985" x1="25.3656" y1="6.10515" x2="58.4055" y2="70.248" gradientUnits="userSpaceOnUse">
<stop stop-color="#7E2542"/>
<stop offset="0.5794" stop-color="#EA7317" stop-opacity="0"/>
</linearGradient>
<linearGradient id="paint20_linear_2049_4985" x1="35.013" y1="-2.16854" x2="35.013" y2="44.8009" gradientUnits="userSpaceOnUse">
<stop offset="0.5995" stop-color="#EA7317" stop-opacity="0"/>
<stop offset="0.939" stop-color="#7E2542" stop-opacity="0.8"/>
</linearGradient>
<linearGradient id="paint21_linear_2049_4985" x1="30.1928" y1="20.5734" x2="55.1945" y2="69.1109" gradientUnits="userSpaceOnUse">
<stop stop-color="#7E2542"/>
<stop offset="0.5794" stop-color="#EA7317" stop-opacity="0"/>
</linearGradient>
<linearGradient id="paint22_linear_2049_4985" x1="23.3061" y1="7.1661" x2="56.3458" y2="71.3087" gradientUnits="userSpaceOnUse">
<stop stop-color="#7E2542"/>
<stop offset="0.5794" stop-color="#EA7317" stop-opacity="0"/>
</linearGradient>
<linearGradient id="paint23_linear_2049_4985" x1="13.5533" y1="4.47358" x2="54.5387" y2="84.0417" gradientUnits="userSpaceOnUse">
<stop stop-color="#7E2542"/>
<stop offset="0.5794" stop-color="#EA7317" stop-opacity="0"/>
</linearGradient>
</defs>
</svg>
