<svg width="40" height="40" viewBox="0 0 40 40" fill="none" xmlns="http://www.w3.org/2000/svg">
<g clip-path="url(#clip0_2095_4679)">
<path d="M35.1414 39.9335H4.79201C2.14457 39.9335 0 37.7889 0 35.1414V4.829C0 2.18156 2.14457 0.0369873 4.79201 0.0369873H35.1414C37.7889 0.0369873 39.9334 2.18156 39.9334 4.829V35.1414C39.9334 37.7889 37.7889 39.9335 35.1414 39.9335Z" fill="url(#paint0_linear_2095_4679)"/>
<path opacity="0.5" d="M1.27196 33.9952V5.97524C1.27196 3.39435 3.36476 1.30154 5.94565 1.30154H33.9952C36.5761 1.30154 38.6689 3.39435 38.6689 5.97524V33.9952C38.6689 36.5761 36.5761 38.6689 33.9952 38.6689H5.93825C3.35737 38.6689 1.27196 36.5761 1.27196 33.9952Z" fill="url(#paint1_linear_2095_4679)"/>
<path d="M39.9852 23.8787L40 20.3365L39.9334 20.2699V23.8196L39.9852 23.8787Z" fill="url(#paint2_linear_2095_4679)"/>
<path d="M39.9334 35.1414L39.963 28.5302L39.9334 28.5006V35.1414Z" fill="url(#paint3_linear_2095_4679)"/>
<path d="M39.4601 37.2194C39.5267 37.0789 39.5859 36.9384 39.645 36.7905C39.5859 36.9384 39.5267 37.0789 39.4601 37.2194Z" fill="url(#paint4_linear_2095_4679)"/>
<path d="M39.4601 37.2194C39.5267 37.0789 39.5859 36.9384 39.645 36.7905C39.5859 36.9384 39.5267 37.0789 39.4601 37.2194Z" fill="url(#paint5_linear_2095_4679)"/>
<path d="M38.7059 38.3435C38.6467 38.4101 38.5875 38.4692 38.5284 38.5358C38.5949 38.4692 38.6541 38.4027 38.7059 38.3435Z" fill="url(#paint6_linear_2095_4679)"/>
<path d="M38.7059 38.3435C38.6467 38.4101 38.5875 38.4692 38.5284 38.5358C38.5949 38.4692 38.6541 38.4027 38.7059 38.3435Z" fill="url(#paint7_linear_2095_4679)"/>
<path d="M37.6262 39.2383C37.7223 39.1791 37.8111 39.12 37.8998 39.0608C37.8111 39.12 37.7223 39.1865 37.6262 39.2383Z" fill="url(#paint8_linear_2095_4679)"/>
<path d="M37.6262 39.2383C37.7223 39.1791 37.8111 39.12 37.8998 39.0608C37.8111 39.12 37.7223 39.1865 37.6262 39.2383Z" fill="url(#paint9_linear_2095_4679)"/>
<path d="M39.1126 37.8185C39.2383 37.6262 39.3566 37.4265 39.4601 37.2195C39.364 37.4265 39.2457 37.6262 39.1126 37.8185Z" fill="url(#paint10_linear_2095_4679)"/>
<path d="M39.1126 37.8185C39.2383 37.6262 39.3566 37.4265 39.4601 37.2195C39.364 37.4265 39.2457 37.6262 39.1126 37.8185Z" fill="url(#paint11_linear_2095_4679)"/>
<path d="M39.9334 28.5007L39.963 28.5302L39.9852 23.8787L39.9334 23.8196V28.5007Z" fill="url(#paint12_linear_2095_4679)"/>
<path d="M39.9334 28.5007L39.963 28.5302L39.9852 23.8787L39.9334 23.8196V28.5007Z" fill="url(#paint13_linear_2095_4679)"/>
<path d="M36.443 39.756C36.0289 39.8743 35.5926 39.9335 35.1415 39.9335H29.2254H29.107H35.1415C35.5926 39.9335 36.0289 39.8669 36.443 39.756Z" fill="url(#paint14_linear_2095_4679)"/>
<path d="M38.7059 38.3435C38.802 38.24 38.8907 38.1291 38.9795 38.0107C38.8981 38.1217 38.802 38.2326 38.7059 38.3435Z" fill="url(#paint15_linear_2095_4679)"/>
<path d="M38.7059 38.3435C38.802 38.24 38.8907 38.1291 38.9795 38.0107C38.8981 38.1217 38.802 38.2326 38.7059 38.3435Z" fill="url(#paint16_linear_2095_4679)"/>
<path d="M37.8998 39.0608C38.0625 38.9499 38.2178 38.8242 38.3657 38.6911C38.2178 38.8242 38.0625 38.9425 37.8998 39.0608Z" fill="url(#paint17_linear_2095_4679)"/>
<path d="M37.8998 39.0608C38.0625 38.9499 38.2178 38.8242 38.3657 38.6911C38.2178 38.8242 38.0625 38.9425 37.8998 39.0608Z" fill="url(#paint18_linear_2095_4679)"/>
<path d="M37.005 39.5563C36.8201 39.6303 36.6353 39.6968 36.443 39.7486C36.6353 39.6968 36.8275 39.6377 37.005 39.5563Z" fill="url(#paint19_linear_2095_4679)"/>
<path d="M37.005 39.5563C36.8201 39.6303 36.6353 39.6968 36.443 39.7486C36.6353 39.6968 36.8275 39.6377 37.005 39.5563Z" fill="url(#paint20_linear_2095_4679)"/>
<path d="M38.5284 38.5284C38.4766 38.5801 38.4175 38.6319 38.3583 38.6837C38.4175 38.6393 38.4766 38.5875 38.5284 38.5284Z" fill="url(#paint21_linear_2095_4679)"/>
<path d="M38.5284 38.5284C38.4766 38.5801 38.4175 38.6319 38.3583 38.6837C38.4175 38.6393 38.4766 38.5875 38.5284 38.5284Z" fill="url(#paint22_linear_2095_4679)"/>
<path d="M37.005 39.5563C37.1455 39.4971 37.286 39.4306 37.4265 39.3566C37.2934 39.4306 37.1529 39.4971 37.005 39.5563Z" fill="url(#paint23_linear_2095_4679)"/>
<path d="M37.005 39.5563C37.1455 39.4971 37.286 39.4306 37.4265 39.3566C37.2934 39.4306 37.1529 39.4971 37.005 39.5563Z" fill="url(#paint24_linear_2095_4679)"/>
<path d="M8.17896 16.5798L16.5946 24.7144L32.8194 18.5617L23.4794 10.7303L8.17896 16.5798Z" fill="url(#paint25_linear_2095_4679)"/>
<path opacity="0.8" d="M31.8654 25.3208L39.9334 33.2409V19.3899L31.7767 11.3884L31.8654 25.3208Z" fill="url(#paint26_linear_2095_4679)"/>
<path opacity="0.8" d="M8.17896 25.6979L22.6807 39.9335H35.1414C37.7889 39.9335 39.9334 37.7889 39.9334 35.1414V33.2631L31.4217 24.8845L8.17896 25.6979Z" fill="url(#paint27_linear_2095_4679)"/>
<path d="M32.7011 14.8198C32.6863 14.0729 32.5975 13.3407 32.3831 12.6234C32.0133 11.3884 31.1925 10.5972 29.9353 10.3088C28.5894 9.99817 27.1991 9.99077 25.8236 9.90943C25.1655 9.87245 24.4999 9.88724 23.8343 9.87245C23.1614 9.85027 22.4958 9.85766 21.8229 9.85766C20.3291 9.85027 18.8353 9.83548 17.3415 9.87245C16.8534 9.88724 16.3579 9.87985 15.8698 9.88724C14.8863 9.90203 13.9101 9.92422 12.9266 9.98338C12.0762 10.0351 11.2331 10.1017 10.3975 10.2274C9.04418 10.4345 7.9645 11.4032 7.63911 12.7343C7.3655 13.8584 7.26936 15.0046 7.24717 16.1583C7.23978 16.4984 7.23978 16.846 7.2028 17.1862C7.2028 17.238 7.2028 17.2897 7.2028 17.3489C7.2028 17.3785 7.2028 17.4006 7.2028 17.4302C7.2028 17.482 7.2028 17.5338 7.2028 17.5929C7.2028 17.6299 7.2028 17.6743 7.2028 17.7112C7.2028 17.763 7.2028 17.8148 7.2028 17.8739C7.2028 17.9109 7.2028 17.9553 7.2028 17.9923C7.2028 18.0292 7.2028 18.0736 7.2028 18.1106C7.2028 18.2067 7.2028 18.2955 7.2028 18.3916C7.2028 18.4877 7.2028 18.5765 7.2028 18.6726C7.2028 18.7909 7.2028 18.9092 7.2028 19.0276C7.2028 19.1089 7.2028 19.1903 7.2028 19.2642C7.2028 19.3603 7.2028 19.4491 7.2028 19.5452C7.2028 19.5822 7.2028 19.6266 7.2028 19.6635C7.2028 19.7449 7.2028 19.8262 7.2028 19.9002C7.2028 19.9741 7.2028 20.0629 7.2028 20.1368C7.2028 20.1886 7.2028 20.2404 7.2028 20.2995C7.2028 20.3291 7.2028 20.3513 7.2028 20.3809C7.2028 20.4326 7.2028 20.4844 7.2028 20.5436C7.22499 20.5731 7.22499 20.6027 7.22499 20.6397C7.25457 21.4088 7.24717 22.1705 7.32113 22.9396C7.38768 23.6347 7.46163 24.3224 7.6539 24.9954C8.03845 26.3487 8.93325 27.1548 10.3161 27.4284C11.3293 27.628 12.3498 27.6724 13.3777 27.739C14.0211 27.7833 14.6718 27.7833 15.3226 27.7833C15.8551 27.7833 16.3801 27.8203 16.9125 27.8055C16.9421 27.8055 16.9791 27.8055 17.0087 27.8277C17.0235 27.8277 17.0383 27.8277 17.0457 27.8277C17.1418 27.8277 17.2305 27.8277 17.3267 27.8277C17.4746 27.8277 17.6151 27.8277 17.763 27.8277C17.8443 27.8277 17.9257 27.8277 17.9996 27.8277C18.0366 27.8277 18.081 27.8277 18.1179 27.8277C18.1993 27.8277 18.2806 27.8277 18.3546 27.8277C18.362 27.8277 18.3768 27.8277 18.3842 27.8277L19.7227 30.1202C19.9741 30.5565 20.6027 30.5713 20.8763 30.1424L21.9042 27.8277C21.9708 27.8277 22.0373 27.8277 22.1039 27.8277C22.1705 27.8277 22.237 27.8277 22.3036 27.8277C22.3405 27.8277 22.3849 27.8277 22.4219 27.8277C22.5032 27.8277 22.5846 27.8277 22.6585 27.8277C22.6881 27.8277 22.7103 27.8277 22.7399 27.8277C22.836 27.8277 22.9248 27.8277 23.0209 27.8277C23.0209 27.8203 23.0209 27.8129 23.0209 27.8055C23.0283 27.8055 23.0357 27.8055 23.0431 27.8055C23.4054 27.7981 23.7752 27.7981 24.1375 27.7907C25.5352 27.7759 26.9329 27.7612 28.3306 27.628C28.937 27.5689 29.5507 27.5319 30.135 27.3544C31.3256 26.9995 32.0725 26.1934 32.4053 25.0102C32.6345 24.2041 32.7158 23.3685 32.7158 22.5328C32.7158 19.952 32.7454 17.3859 32.7011 14.8198ZM17.8517 19.1755L17.7778 19.2494L14.7828 22.2518L11.7804 19.2494L11.7064 19.1755C10.8782 18.3472 10.8782 17.0013 11.7064 16.1731C12.5347 15.3448 13.8806 15.3448 14.7088 16.1731L14.7828 16.247L14.8567 16.1731C15.685 15.3448 17.0309 15.3448 17.8591 16.1731L17.8665 16.1805C18.6874 17.0087 18.6874 18.3472 17.8517 19.1755ZM22.8582 22.6733H21.1056V16.3062C20.9946 16.4393 20.8393 16.5502 20.6397 16.6316C20.44 16.7129 20.2551 16.7573 20.0776 16.7573V15.4409C20.2403 15.4188 20.4252 15.3596 20.6101 15.2783C20.8024 15.1969 20.9798 15.0786 21.1425 14.9381C21.3052 14.7902 21.4309 14.6201 21.5197 14.413H22.8508V22.6733H22.8582ZM26.1934 22.6733L25.1433 19.3529V22.6733H23.4794V14.413H25.1433V18.0588L25.9493 15.6332H27.6872L26.6297 18.6948L27.9756 22.6733H26.1934Z" fill="white"/>
<path d="M4.64411 39.8965C2.07802 39.8965 0 37.8184 0 35.2597V4.79201C0 2.14457 2.14457 0 4.79201 0H35.0601C37.7519 0 39.9334 2.18155 39.9334 4.86596V23.8491V32.6641V35.1414C39.9334 37.7815 37.7815 39.9186 35.1414 39.9039C34.1505 39.8965 33.2335 39.8965 32.6567 39.8965H4.64411Z" fill="url(#paint28_linear_2095_4679)"/>
</g>
<defs>
<linearGradient id="paint0_linear_2095_4679" x1="21.5211" y1="16.5982" x2="-0.193321" y2="63.9244" gradientUnits="userSpaceOnUse">
<stop offset="0.4206" stop-color="#EA7317"/>
<stop offset="1" stop-color="#7E2542"/>
</linearGradient>
<linearGradient id="paint1_linear_2095_4679" x1="-0.336932" y1="-5.42489" x2="41.2613" y2="46.6344" gradientUnits="userSpaceOnUse">
<stop stop-color="#7E2542" stop-opacity="0.3"/>
<stop offset="0.0070214" stop-color="#822840" stop-opacity="0.3085"/>
<stop offset="0.0713146" stop-color="#A23F34" stop-opacity="0.3862"/>
<stop offset="0.1412" stop-color="#BC5229" stop-opacity="0.4705"/>
<stop offset="0.2175" stop-color="#D16121" stop-opacity="0.5628"/>
<stop offset="0.3037" stop-color="#DF6B1B" stop-opacity="0.6669"/>
<stop offset="0.4079" stop-color="#E77118" stop-opacity="0.7928"/>
<stop offset="0.5794" stop-color="#EA7317"/>
</linearGradient>
<linearGradient id="paint2_linear_2095_4679" x1="27.1313" y1="-2.8743" x2="81.9296" y2="103.664" gradientUnits="userSpaceOnUse">
<stop stop-color="#7E2542"/>
<stop offset="0.3161" stop-color="#BB512A" stop-opacity="0.4546"/>
<stop offset="0.5794" stop-color="#EA7317" stop-opacity="0"/>
</linearGradient>
<linearGradient id="paint3_linear_2095_4679" x1="23.1476" y1="-0.82568" x2="77.9446" y2="105.715" gradientUnits="userSpaceOnUse">
<stop stop-color="#7E2542"/>
<stop offset="0.3161" stop-color="#BB512A" stop-opacity="0.4546"/>
<stop offset="0.5794" stop-color="#EA7317" stop-opacity="0"/>
</linearGradient>
<linearGradient id="paint4_linear_2095_4679" x1="20.7326" y1="0.417335" x2="75.5317" y2="106.954" gradientUnits="userSpaceOnUse">
<stop stop-color="#7E2542"/>
<stop offset="0.3161" stop-color="#BB512A" stop-opacity="0.4546"/>
<stop offset="0.5794" stop-color="#EA7317" stop-opacity="0"/>
</linearGradient>
<linearGradient id="paint5_linear_2095_4679" x1="30.3985" y1="19.2084" x2="72.1362" y2="100.352" gradientUnits="userSpaceOnUse">
<stop stop-color="#7E2542"/>
<stop offset="0.1709" stop-color="#A84331" stop-opacity="0.705"/>
<stop offset="0.3457" stop-color="#CC5D23" stop-opacity="0.4034"/>
<stop offset="0.4881" stop-color="#E26D1A" stop-opacity="0.1576"/>
<stop offset="0.5794" stop-color="#EA7317" stop-opacity="0"/>
</linearGradient>
<linearGradient id="paint6_linear_2095_4679" x1="19.4131" y1="1.096" x2="74.2128" y2="107.632" gradientUnits="userSpaceOnUse">
<stop stop-color="#7E2542"/>
<stop offset="0.3161" stop-color="#BB512A" stop-opacity="0.4546"/>
<stop offset="0.5794" stop-color="#EA7317" stop-opacity="0"/>
</linearGradient>
<linearGradient id="paint7_linear_2095_4679" x1="29.0789" y1="19.8872" x2="70.8171" y2="101.031" gradientUnits="userSpaceOnUse">
<stop stop-color="#7E2542"/>
<stop offset="0.1709" stop-color="#A84331" stop-opacity="0.705"/>
<stop offset="0.3457" stop-color="#CC5D23" stop-opacity="0.4034"/>
<stop offset="0.4881" stop-color="#E26D1A" stop-opacity="0.1576"/>
<stop offset="0.5794" stop-color="#EA7317" stop-opacity="0"/>
</linearGradient>
<linearGradient id="paint8_linear_2095_4679" x1="18.4447" y1="1.59475" x2="73.2426" y2="108.13" gradientUnits="userSpaceOnUse">
<stop stop-color="#7E2542"/>
<stop offset="0.3161" stop-color="#BB512A" stop-opacity="0.4546"/>
<stop offset="0.5794" stop-color="#EA7317" stop-opacity="0"/>
</linearGradient>
<linearGradient id="paint9_linear_2095_4679" x1="28.1105" y1="20.3856" x2="69.8474" y2="101.528" gradientUnits="userSpaceOnUse">
<stop stop-color="#7E2542"/>
<stop offset="0.1709" stop-color="#A84331" stop-opacity="0.705"/>
<stop offset="0.3457" stop-color="#CC5D23" stop-opacity="0.4034"/>
<stop offset="0.4881" stop-color="#E26D1A" stop-opacity="0.1576"/>
<stop offset="0.5794" stop-color="#EA7317" stop-opacity="0"/>
</linearGradient>
<linearGradient id="paint10_linear_2095_4679" x1="20.3146" y1="0.632388" x2="75.1149" y2="107.168" gradientUnits="userSpaceOnUse">
<stop stop-color="#7E2542"/>
<stop offset="0.3161" stop-color="#BB512A" stop-opacity="0.4546"/>
<stop offset="0.5794" stop-color="#EA7317" stop-opacity="0"/>
</linearGradient>
<linearGradient id="paint11_linear_2095_4679" x1="29.9802" y1="19.4236" x2="71.7189" y2="100.567" gradientUnits="userSpaceOnUse">
<stop stop-color="#7E2542"/>
<stop offset="0.1709" stop-color="#A84331" stop-opacity="0.705"/>
<stop offset="0.3457" stop-color="#CC5D23" stop-opacity="0.4034"/>
<stop offset="0.4881" stop-color="#E26D1A" stop-opacity="0.1576"/>
<stop offset="0.5794" stop-color="#EA7317" stop-opacity="0"/>
</linearGradient>
<linearGradient id="paint12_linear_2095_4679" x1="25.4556" y1="-2.012" x2="80.2554" y2="104.524" gradientUnits="userSpaceOnUse">
<stop stop-color="#7E2542"/>
<stop offset="0.3161" stop-color="#BB512A" stop-opacity="0.4546"/>
<stop offset="0.5794" stop-color="#EA7317" stop-opacity="0"/>
</linearGradient>
<linearGradient id="paint13_linear_2095_4679" x1="31.5583" y1="9.85239" x2="73.2967" y2="90.9957" gradientUnits="userSpaceOnUse">
<stop stop-color="#7E2542"/>
<stop offset="0.0591127" stop-color="#8F313B" stop-opacity="0.898"/>
<stop offset="0.2167" stop-color="#B64E2C" stop-opacity="0.6261"/>
<stop offset="0.3612" stop-color="#D36220" stop-opacity="0.3766"/>
<stop offset="0.4868" stop-color="#E46F19" stop-opacity="0.1598"/>
<stop offset="0.5794" stop-color="#EA7317" stop-opacity="0"/>
</linearGradient>
<linearGradient id="paint14_linear_2095_4679" x1="39.6297" y1="24.9068" x2="17.9152" y2="72.2332" gradientUnits="userSpaceOnUse">
<stop offset="0.4206" stop-color="#EA7317"/>
<stop offset="1" stop-color="#7E2542"/>
</linearGradient>
<linearGradient id="paint15_linear_2095_4679" x1="29.3636" y1="19.7408" x2="71.102" y2="100.884" gradientUnits="userSpaceOnUse">
<stop stop-color="#7E2542"/>
<stop offset="0.1709" stop-color="#A84331" stop-opacity="0.705"/>
<stop offset="0.3457" stop-color="#CC5D23" stop-opacity="0.4034"/>
<stop offset="0.4881" stop-color="#E26D1A" stop-opacity="0.1576"/>
<stop offset="0.5794" stop-color="#EA7317" stop-opacity="0"/>
</linearGradient>
<linearGradient id="paint16_linear_2095_4679" x1="44.0109" y1="26.917" x2="22.2964" y2="74.2433" gradientUnits="userSpaceOnUse">
<stop offset="0.4206" stop-color="#EA7317"/>
<stop offset="1" stop-color="#7E2542"/>
</linearGradient>
<linearGradient id="paint17_linear_2095_4679" x1="28.5143" y1="20.1778" x2="70.2521" y2="101.321" gradientUnits="userSpaceOnUse">
<stop stop-color="#7E2542"/>
<stop offset="0.1709" stop-color="#A84331" stop-opacity="0.705"/>
<stop offset="0.3457" stop-color="#CC5D23" stop-opacity="0.4034"/>
<stop offset="0.4881" stop-color="#E26D1A" stop-opacity="0.1576"/>
<stop offset="0.5794" stop-color="#EA7317" stop-opacity="0"/>
</linearGradient>
<linearGradient id="paint18_linear_2095_4679" x1="43.6862" y1="26.7681" x2="21.9721" y2="74.0941" gradientUnits="userSpaceOnUse">
<stop offset="0.4206" stop-color="#EA7317"/>
<stop offset="1" stop-color="#7E2542"/>
</linearGradient>
<linearGradient id="paint19_linear_2095_4679" x1="27.0853" y1="20.9129" x2="68.8249" y2="102.055" gradientUnits="userSpaceOnUse">
<stop stop-color="#7E2542"/>
<stop offset="0.1709" stop-color="#A84331" stop-opacity="0.705"/>
<stop offset="0.3457" stop-color="#CC5D23" stop-opacity="0.4034"/>
<stop offset="0.4881" stop-color="#E26D1A" stop-opacity="0.1576"/>
<stop offset="0.5794" stop-color="#EA7317" stop-opacity="0"/>
</linearGradient>
<linearGradient id="paint20_linear_2095_4679" x1="42.8205" y1="26.3709" x2="21.1053" y2="73.6964" gradientUnits="userSpaceOnUse">
<stop offset="0.4206" stop-color="#EA7317"/>
<stop offset="1" stop-color="#7E2542"/>
</linearGradient>
<linearGradient id="paint21_linear_2095_4679" x1="28.8716" y1="19.9944" x2="70.6083" y2="101.136" gradientUnits="userSpaceOnUse">
<stop stop-color="#7E2542"/>
<stop offset="0.1709" stop-color="#A84331" stop-opacity="0.705"/>
<stop offset="0.3457" stop-color="#CC5D23" stop-opacity="0.4034"/>
<stop offset="0.4881" stop-color="#E26D1A" stop-opacity="0.1576"/>
<stop offset="0.5794" stop-color="#EA7317" stop-opacity="0"/>
</linearGradient>
<linearGradient id="paint22_linear_2095_4679" x1="43.8466" y1="26.8419" x2="22.133" y2="74.1673" gradientUnits="userSpaceOnUse">
<stop offset="0.4206" stop-color="#EA7317"/>
<stop offset="1" stop-color="#7E2542"/>
</linearGradient>
<linearGradient id="paint23_linear_2095_4679" x1="27.5538" y1="20.6715" x2="69.2927" y2="101.815" gradientUnits="userSpaceOnUse">
<stop stop-color="#7E2542"/>
<stop offset="0.1709" stop-color="#A84331" stop-opacity="0.705"/>
<stop offset="0.3457" stop-color="#CC5D23" stop-opacity="0.4034"/>
<stop offset="0.4881" stop-color="#E26D1A" stop-opacity="0.1576"/>
<stop offset="0.5794" stop-color="#EA7317" stop-opacity="0"/>
</linearGradient>
<linearGradient id="paint24_linear_2095_4679" x1="43.1509" y1="26.5223" x2="21.4362" y2="73.8489" gradientUnits="userSpaceOnUse">
<stop offset="0.4206" stop-color="#EA7317"/>
<stop offset="1" stop-color="#7E2542"/>
</linearGradient>
<linearGradient id="paint25_linear_2095_4679" x1="15.5825" y1="9.7499" x2="31.3035" y2="34.753" gradientUnits="userSpaceOnUse">
<stop stop-color="#7E2542"/>
<stop offset="0.1151" stop-color="#822841" stop-opacity="0.7981"/>
<stop offset="0.2239" stop-color="#8D303C" stop-opacity="0.6075"/>
<stop offset="0.33" stop-color="#A03E34" stop-opacity="0.4214"/>
<stop offset="0.4345" stop-color="#BB512A" stop-opacity="0.2381"/>
<stop offset="0.537" stop-color="#DD6A1C" stop-opacity="0.0584877"/>
<stop offset="0.5704" stop-color="#EA7317" stop-opacity="0"/>
</linearGradient>
<linearGradient id="paint26_linear_2095_4679" x1="25.9118" y1="11.3612" x2="56.7209" y2="45.2699" gradientUnits="userSpaceOnUse">
<stop stop-color="#7E2542"/>
<stop offset="0.1151" stop-color="#822841" stop-opacity="0.7981"/>
<stop offset="0.2239" stop-color="#8D303C" stop-opacity="0.6075"/>
<stop offset="0.33" stop-color="#A03E34" stop-opacity="0.4214"/>
<stop offset="0.4345" stop-color="#BB512A" stop-opacity="0.2381"/>
<stop offset="0.537" stop-color="#DD6A1C" stop-opacity="0.0584877"/>
<stop offset="0.5704" stop-color="#EA7317" stop-opacity="0"/>
</linearGradient>
<linearGradient id="paint27_linear_2095_4679" x1="15.7079" y1="18.1712" x2="48.0198" y2="61.9427" gradientUnits="userSpaceOnUse">
<stop stop-color="#7E2542"/>
<stop offset="0.1151" stop-color="#822841" stop-opacity="0.7981"/>
<stop offset="0.2239" stop-color="#8D303C" stop-opacity="0.6075"/>
<stop offset="0.33" stop-color="#A03E34" stop-opacity="0.4214"/>
<stop offset="0.4345" stop-color="#BB512A" stop-opacity="0.2381"/>
<stop offset="0.537" stop-color="#DD6A1C" stop-opacity="0.0584877"/>
<stop offset="0.5704" stop-color="#EA7317" stop-opacity="0"/>
</linearGradient>
<linearGradient id="paint28_linear_2095_4679" x1="19.9671" y1="-2.17818" x2="19.9671" y2="45.001" gradientUnits="userSpaceOnUse">
<stop offset="0.5995" stop-color="#EA7317" stop-opacity="0"/>
<stop offset="0.939" stop-color="#7E2542" stop-opacity="0.8"/>
</linearGradient>
<clipPath id="clip0_2095_4679">
<rect width="40" height="39.9334" fill="white"/>
</clipPath>
</defs>
</svg>
